<?xml version="1.0" encoding="utf-8"?>
<!-- Generator: Adobe Illustrator 16.0.0, SVG Export Plug-In . SVG Version: 6.00 Build 0)  -->
<!DOCTYPE svg PUBLIC "-//W3C//DTD SVG 1.1//EN" "http://www.w3.org/Graphics/SVG/1.1/DTD/svg11.dtd">
<svg version="1.1" id="Layer_1" xmlns="http://www.w3.org/2000/svg" xmlns:xlink="http://www.w3.org/1999/xlink" x="0px" y="0px"
	 width="477px" height="662px" viewBox="0 0 477 662" enable-background="new 0 0 477 662" xml:space="preserve">
<path opacity="0.06" d="M477-8.506H223.737l0.468,0.214c-0.855-0.026-1.604-0.107-2.446-0.107c-0.207,0-0.406-0.026-0.64-0.026
	h0.012c-0.327,0-0.64,0-0.981,0c-37.176,0-70.351,6.644-99.55,19.935C91.392,24.827,68.673,43.128,52.426,66.413
	C36.16,89.725,28.03,115.662,28.03,144.252c0,10.691,1.122,20.981,3.34,30.868c3.754,16.317,10.535,31.591,20.375,45.793
	c15.932,22.936,43.449,42.094,82.628,57.395c-0.487,0-0.927,0.026-1.402,0.026c-33.167,0.241-58.767,9.03-76.75,26.42
	c-18.263,17.632-27.369,39.415-27.369,65.38c0,25.295,7.128,43.89,21.411,55.867c14.263,11.977,34.337,20.312,60.222,24.946
	c19.908,3.35,53.396,5.654,100.512,6.993c38.486,0.67,69.689,2.52,93.579,5.493c23.894,3.002,43.788,9.807,59.714,20.444
	c15.928,10.665,23.896,26.608,23.896,47.909c0,34.593-13.614,60.718-40.83,78.35c-27.209,17.631-66.035,26.446-116.458,26.446
	c-12.219,0-23.608-0.483-34.123-1.474c-64.847-6.162-97.233-31.297-97.259-75.375c0-11.307,2.171-21.141,6.479-29.42
	c4.31-8.334,9.285-15.327,14.93-20.98c5.631-5.654,8.472-8.816,8.472-9.458c0-2.653-2.512-6.485-7.476-11.47
	c-4.977-5.01-11.438-9.351-19.407-12.994c-7.962-3.672-16.594-5.493-25.879-5.493c-22.573,0-40.998,8.333-55.233,24.973
	C7.114,511.479,0,531.118,0,553.76c0,77.49,65.96,117.416,197.89,119.64c3.988,0.081,8.023,0.106,12.125,0.106
	c80.94,0,145.632-14.79,194.097-44.398c48.439-29.608,72.641-70.363,72.641-122.239c0-39.924-15.424-69.72-46.28-89.334
	c-30.851-19.614-81.112-30.761-150.781-33.44l-136.373-4.984c-21.243-1.312-36.167-5.01-44.784-10.986
	c-8.644-6.002-12.926-15.299-12.926-27.946c0-15.3,7.789-26.286,23.375-32.931c15.324-6.537,39.888-9.86,73.496-9.967
	c0.581,0,1.096-0.027,1.657-0.027h43.796c31.176,0,61.032-6.297,89.57-18.943c28.519-12.648,51.593-30.789,69.181-54.395
	c17.562-23.632,26.375-50.749,26.375-81.35c0-16.64-3.982-34.27-11.932-52.92c-3.153-7.314-6.627-13.933-10.268-20.123
	c-0.688-1.045-1.282-2.089-1.998-3.107c-0.039-0.027-0.066-0.081-0.092-0.108c-8.218-11.735-18.105-22.212-29.615-31.402H477V-8.506
	z M295.289,235.597c-0.367,0.402-0.782,0.776-1.129,1.179c-18.785,21.463-43.436,32.233-74.011,32.233
	c-30.516,0-55.434-11.279-74.646-33.921c-12.057-14.148-20.348-31.699-24.837-52.626c-2.806-12.727-4.222-26.688-4.222-41.907
	c0-36.575,9.613-65.54,28.878-86.815c19.213-21.302,43.79-31.939,73.644-31.939c30.517,0,55.58,10.958,75.147,32.931
	c12.279,13.772,20.702,30.466,25.285,49.999c2.84,11.816,4.27,24.651,4.27,38.531C323.668,182.542,314.188,213.303,295.289,235.597z
	"/>
</svg>
