<?xml version="1.0" encoding="utf-8"?>
<!-- Generator: Adobe Illustrator 16.0.0, SVG Export Plug-In . SVG Version: 6.00 Build 0)  -->
<!DOCTYPE svg PUBLIC "-//W3C//DTD SVG 1.1//EN" "http://www.w3.org/Graphics/SVG/1.1/DTD/svg11.dtd">
<svg version="1.1" id="Layer_1" xmlns="http://www.w3.org/2000/svg" xmlns:xlink="http://www.w3.org/1999/xlink" x="0px" y="0px"
	 width="16px" height="16.004px" viewBox="0 0 16 16.004" enable-background="new 0 0 16 16.004" xml:space="preserve">
<path d="M15.836,15.046l-3.871-3.87c1.041-1.225,1.612-2.76,1.612-4.386c0-1.814-0.706-3.519-1.989-4.801
	C10.306,0.707,8.601,0,6.787,0C4.974,0,3.269,0.707,1.986,1.989c-2.647,2.647-2.647,6.955,0,9.603
	c1.283,1.282,2.988,1.989,4.801,1.989c1.625,0,3.161-0.571,4.386-1.612l3.87,3.871c0.11,0.109,0.253,0.165,0.396,0.165
	s0.287-0.055,0.396-0.165C16.055,15.621,16.055,15.266,15.836,15.046z M2.779,10.799c-2.21-2.21-2.21-5.807,0-8.017
	c1.071-1.071,2.495-1.661,4.009-1.661s2.938,0.59,4.009,1.661c1.071,1.07,1.66,2.494,1.66,4.008s-0.59,2.938-1.661,4.008
	c-1.071,1.071-2.494,1.661-4.008,1.661S3.85,11.87,2.779,10.799z"/>
</svg>
