<?xml version="1.0" encoding="utf-8"?>
<!-- Generator: Adobe Illustrator 16.0.0, SVG Export Plug-In . SVG Version: 6.00 Build 0)  -->
<!DOCTYPE svg PUBLIC "-//W3C//DTD SVG 1.1//EN" "http://www.w3.org/Graphics/SVG/1.1/DTD/svg11.dtd">
<svg version="1.1" id="Layer_1" xmlns="http://www.w3.org/2000/svg" xmlns:xlink="http://www.w3.org/1999/xlink" x="0px" y="0px"
	 width="69.944px" height="68.336px" viewBox="0 0 69.944 68.336" enable-background="new 0 0 69.944 68.336" xml:space="preserve">
<g>
	<g>
		<path fill-rule="evenodd" clip-rule="evenodd" d="M33.809,23.069l11.166,11.166l4.887-4.887c4.822,1.1,10.083-0.212,13.838-3.968
			c3.746-3.745,5.061-8.989,3.977-13.8l-8.451,8.451l-9.68-1.533l-1.533-9.68l8.451-8.451c-4.811-1.084-10.055,0.231-13.8,3.977
			c-3.755,3.755-5.067,9.016-3.968,13.837L33.809,23.069z"/>
	</g>
	<g>
		<path fill-rule="evenodd" clip-rule="evenodd" d="M24.439,32.438L2.313,54.565c-3.084,3.084-3.083,8.082,0,11.166
			c3.083,3.083,8.082,3.084,11.166,0l22.126-22.127L24.439,32.438z"/>
	</g>
</g>
<g>
	<path fill-rule="evenodd" clip-rule="evenodd" d="M49.34,42.842L19.839,13.341l-0.317-3.366L9.971,3.547L4.918,8.6l6.428,9.551
		l3.366,0.317l29.501,29.501l-2.902,2.901l15.153,15.153c3.084,3.084,8.083,3.083,11.166,0c3.083-3.084,3.084-8.083,0-11.166
		L52.478,39.705L49.34,42.842z"/>
</g>
<g>
	<path fill="#FFFFFF" d="M66.093,57.824c-0.128,0-0.256-0.049-0.354-0.146L52.125,44.062c-0.195-0.195-0.195-0.512,0-0.707
		s0.512-0.195,0.707,0L66.446,56.97c0.195,0.195,0.195,0.512,0,0.707C66.349,57.775,66.221,57.824,66.093,57.824z"/>
</g>
<g>
	<path fill="#FFFFFF" d="M64.091,59.826c-0.128,0-0.256-0.049-0.354-0.146L50.123,46.064c-0.195-0.195-0.195-0.512,0-0.707
		s0.512-0.195,0.707,0l13.615,13.615c0.195,0.195,0.195,0.512,0,0.707C64.347,59.777,64.219,59.826,64.091,59.826z"/>
</g>
<g>
	<path fill="#FFFFFF" d="M62.089,61.828c-0.128,0-0.256-0.049-0.354-0.146L48.121,48.066c-0.195-0.195-0.195-0.512,0-0.707
		s0.512-0.195,0.707,0l13.615,13.615c0.195,0.195,0.195,0.512,0,0.707C62.345,61.779,62.217,61.828,62.089,61.828z"/>
</g>
<g>
	<path fill="#FFFFFF" d="M9.475,66.231c-0.128,0-0.256-0.049-0.354-0.146c-0.195-0.195-0.195-0.512,0-0.707L31.248,43.25
		c0.195-0.195,0.512-0.195,0.707,0s0.195,0.512,0,0.707L9.829,66.084C9.731,66.182,9.603,66.231,9.475,66.231z"/>
</g>
</svg>
