<?xml version="1.0" encoding="utf-8"?>
<!-- Generator: Adobe Illustrator 16.0.0, SVG Export Plug-In . SVG Version: 6.00 Build 0)  -->
<!DOCTYPE svg PUBLIC "-//W3C//DTD SVG 1.1//EN" "http://www.w3.org/Graphics/SVG/1.1/DTD/svg11.dtd">
<svg version="1.1" id="Layer_1" xmlns="http://www.w3.org/2000/svg" xmlns:xlink="http://www.w3.org/1999/xlink" x="0px" y="0px"
	 width="70.064px" height="54.688px" viewBox="0 0 70.064 54.688" enable-background="new 0 0 70.064 54.688" xml:space="preserve">
<path d="M17.184,23.653C7.552,24.426,0,31.071,0,39.132c0,2.384,0.64,4.667,1.901,6.789c-0.057,0.483-0.493,1.637-0.762,2.349
	c-0.847,2.238-1.579,4.173-0.312,5.322c0.458,0.415,1.08,0.626,1.849,0.626h0c1.088,0,2.421-0.409,3.833-0.843
	c1.098-0.337,2.342-0.719,3.006-0.719c0.068,0,0.108,0.003,0.106,0c2.861,1.33,6.125,2.032,9.441,2.032
	c9.009,0,16.56-5.132,18.541-11.997C26.638,40.626,18.254,32.996,17.184,23.653z"/>
<g>
	<circle cx="53.5" cy="22.81" r="4.188"/>
</g>
<g>
	<circle cx="43.564" cy="22.81" r="4.188"/>
</g>
<g>
	<circle cx="33.628" cy="22.81" r="4.188"/>
</g>
<path d="M67.422,31.063c1.753-2.951,2.642-6.125,2.642-9.438C70.064,9.701,58.176,0,43.564,0s-26.5,9.701-26.5,21.625
	s11.888,21.625,26.5,21.625c4.623,0,9.173-0.982,13.082-2.813c0,0,0.057-0.013,0.189-0.013c0.924,0,2.654,0.531,4.181,1
	c1.962,0.603,3.815,1.172,5.328,1.172c1.068,0,1.934-0.293,2.569-0.87c1.763-1.599,0.745-4.286-0.433-7.399
	C68.107,33.337,67.5,31.734,67.422,31.063z M64.74,35.742c0.301,0.795,0.742,1.96,0.971,2.795c-0.957-0.149-2.304-0.563-3.521-0.937
	c-2.87-0.883-5.507-1.588-7.159-0.817c-3.459,1.614-7.424,2.467-11.467,2.467c-12.407,0-22.5-7.906-22.5-17.625S31.157,4,43.564,4
	c12.406,0,22.5,7.906,22.5,17.625c0,2.664-0.745,5.227-2.213,7.614C62.877,30.82,63.7,32.992,64.74,35.742z"/>
</svg>
