<?xml version="1.0" encoding="utf-8"?>
<!-- Generator: Adobe Illustrator 16.0.0, SVG Export Plug-In . SVG Version: 6.00 Build 0)  -->
<!DOCTYPE svg PUBLIC "-//W3C//DTD SVG 1.1//EN" "http://www.w3.org/Graphics/SVG/1.1/DTD/svg11.dtd">
<svg version="1.1" id="Layer_1" xmlns="http://www.w3.org/2000/svg" xmlns:xlink="http://www.w3.org/1999/xlink" x="0px" y="0px"
	 width="88.229px" height="66px" viewBox="0 0 88.229 66" enable-background="new 0 0 88.229 66" xml:space="preserve">
<path d="M41.875,4.26C62.65,4.26,79.491,17.127,79.491,33c0,6.969-3.247,13.357-8.647,18.332c2.002,2.991,4.339,6.278,8.204,8.708
	c-1.356,0.574-3.063,0.857-4.912,0.857c-3.632,0-7.811-1.096-10.941-3.248c-5.238,2.113-14.982,4.091-21.318,4.091
	C21.101,61.739,4.26,48.872,4.26,33C4.26,17.127,21.101,4.26,41.875,4.26 M41.875,0C18.786,0,0,14.803,0,33s18.786,33,41.875,33
	c5.923,0,14.772-1.58,20.878-3.65c3.364,1.779,7.466,2.807,11.381,2.807c2.453,0,4.725-0.412,6.572-1.194l7.522-3.183l-6.915-4.348
	c-2.038-1.281-3.585-2.9-4.948-4.669c4.787-5.477,7.385-12.023,7.385-18.763C83.751,14.803,64.966,0,41.875,0L41.875,0z"/>
</svg>
