<?xml version="1.0" encoding="utf-8"?>
<!-- Generator: Adobe Illustrator 16.0.0, SVG Export Plug-In . SVG Version: 6.00 Build 0)  -->
<!DOCTYPE svg PUBLIC "-//W3C//DTD SVG 1.1//EN" "http://www.w3.org/Graphics/SVG/1.1/DTD/svg11.dtd">
<svg version="1.1" id="Layer_1" xmlns="http://www.w3.org/2000/svg" xmlns:xlink="http://www.w3.org/1999/xlink" x="0px" y="0px"
	 width="53px" height="43.25px" viewBox="0 0 53 43.25" enable-background="new 0 0 53 43.25" xml:space="preserve">
<g>
	<path fill="#FFFFFF" d="M51,21.625c0,3.109-0.903,6.05-2.51,8.662c-0.967,1.571,3.448,8.658,2.016,9.957
		c-1.734,1.574-9.415-2.711-11.693-1.648c-3.617,1.688-7.824,2.654-12.313,2.654C12.97,41.25,2,32.464,2,21.625S12.97,2,26.5,2
		C40.031,2,51,10.786,51,21.625z"/>
	<path d="M26.5,43.25C11.888,43.25,0,33.549,0,21.625S11.888,0,26.5,0S53,9.701,53,21.625c0,3.313-0.889,6.486-2.642,9.438
		c0.078,0.672,0.685,2.274,1.059,3.264c1.178,3.113,2.195,5.801,0.433,7.4c-0.636,0.577-1.501,0.87-2.569,0.87
		c-1.513,0-3.366-0.569-5.328-1.171c-1.526-0.469-3.257-1-4.181-1c-0.133,0-0.189,0.013-0.189,0.013
		C35.673,42.267,31.123,43.25,26.5,43.25z M26.5,4C14.094,4,4,11.907,4,21.625S14.094,39.25,26.5,39.25
		c4.043,0,8.008-0.853,11.467-2.467c1.654-0.772,4.289-0.064,7.159,0.817c1.217,0.374,2.563,0.787,3.521,0.937
		c-0.229-0.836-0.67-2.001-0.971-2.795c-1.04-2.75-1.862-4.921-0.889-6.503C48.255,26.851,49,24.289,49,21.625
		C49,11.907,38.906,4,26.5,4z"/>
</g>
<g>
	<g>
		<path d="M13.501,24.958c-0.828,0-1.5-0.671-1.5-1.5v-3.667c0-0.829,0.672-1.5,1.5-1.5s1.5,0.671,1.5,1.5v3.667
			C15.001,24.287,14.329,24.958,13.501,24.958z"/>
	</g>
	<g>
		<path d="M17.834,27.292c-0.828,0-1.5-0.671-1.5-1.5v-8.333c0-0.829,0.672-1.5,1.5-1.5s1.5,0.671,1.5,1.5v8.333
			C19.334,26.621,18.662,27.292,17.834,27.292z"/>
	</g>
	<g>
		<path d="M22.167,29.792c-0.828,0-1.5-0.671-1.5-1.5V14.958c0-0.829,0.672-1.5,1.5-1.5s1.5,0.671,1.5,1.5v13.333
			C23.667,29.121,22.995,29.792,22.167,29.792z"/>
	</g>
	<g>
		<path d="M26.5,32.125c-0.828,0-1.5-0.671-1.5-1.5v-18c0-0.829,0.672-1.5,1.5-1.5s1.5,0.671,1.5,1.5v18
			C28,31.454,27.328,32.125,26.5,32.125z"/>
	</g>
	<g>
		<path d="M30.833,29.792c-0.828,0-1.5-0.671-1.5-1.5V14.958c0-0.829,0.672-1.5,1.5-1.5s1.5,0.671,1.5,1.5v13.333
			C32.333,29.121,31.661,29.792,30.833,29.792z"/>
	</g>
	<g>
		<path d="M35.166,27.292c-0.828,0-1.5-0.671-1.5-1.5v-8.333c0-0.829,0.672-1.5,1.5-1.5s1.5,0.671,1.5,1.5v8.333
			C36.666,26.621,35.994,27.292,35.166,27.292z"/>
	</g>
	<g>
		<path d="M39.499,24.958c-0.828,0-1.5-0.671-1.5-1.5v-3.667c0-0.829,0.672-1.5,1.5-1.5s1.5,0.671,1.5,1.5v3.667
			C40.999,24.287,40.327,24.958,39.499,24.958z"/>
	</g>
</g>
</svg>
