<?xml version="1.0" encoding="utf-8"?>
<!-- Generator: Adobe Illustrator 16.0.0, SVG Export Plug-In . SVG Version: 6.00 Build 0)  -->
<!DOCTYPE svg PUBLIC "-//W3C//DTD SVG 1.1//EN" "http://www.w3.org/Graphics/SVG/1.1/DTD/svg11.dtd">
<svg version="1.1" id="Layer_1" xmlns="http://www.w3.org/2000/svg" xmlns:xlink="http://www.w3.org/1999/xlink" x="0px" y="0px"
	 width="55.566px" height="48.562px" viewBox="0 0 55.566 48.562" enable-background="new 0 0 55.566 48.562" xml:space="preserve">
<g>
	<g>
		<path d="M0,35.689C0,25.073,0,14.456,0,3.84C0.702,1.746,2.17,0.507,4.291,0c15.662,0,31.323,0,46.984,0
			c2.247,0.614,3.769,1.954,4.291,4.292c0,10.391,0,20.781,0,31.172c-1.095,3.545-3.216,4.14-6.225,4.081
			c-3.987-0.079-7.979-0.02-11.968-0.02c-0.396,0-0.793,0-1.289,0c0.089,0.322,0.113,0.506,0.188,0.666
			c0.817,1.744,1.673,3.472,2.457,5.229c0.795,1.782-0.102,3.138-2.032,3.139c-5.983,0.003-11.968,0.005-17.952-0.001
			c-1.837-0.002-2.719-1.45-1.937-3.132c0.888-1.907,1.761-3.821,2.718-5.901c-0.563,0-0.959,0-1.355,0
			c-4.104,0-8.207-0.064-12.307,0.022C3.181,39.605,1.073,38.882,0,35.689z M4.25,35.176c15.711,0,31.337,0,47.029,0
			c0-0.458,0-0.83,0-1.202c0-9.444-0.018-18.889,0.023-28.333c0.005-1.079-0.281-1.381-1.37-1.378
			C35.107,4.299,20.283,4.288,5.458,4.288c-0.37,0-0.74,0-1.208,0C4.25,14.638,4.25,24.889,4.25,35.176z"/>
		<path fill-rule="evenodd" clip-rule="evenodd" fill="#FFFFFF" d="M55.566,4.292C55.044,1.954,53.522,0.614,51.275,0
			c1.431,0,2.86,0,4.291,0C55.566,1.43,55.566,2.861,55.566,4.292z"/>
		<path fill-rule="evenodd" clip-rule="evenodd" fill="#FFFFFF" d="M4.291,0C2.17,0.507,0.702,1.746,0,3.84C0,2.56,0,1.28,0,0
			C1.431,0,2.861,0,4.291,0z"/>
		<path fill-rule="evenodd" clip-rule="evenodd" fill="#FFFFFF" d="M4.25,35.176c0-10.287,0-20.538,0-30.889
			c0.468,0,0.838,0,1.208,0c14.825,0,29.649,0.012,44.475-0.024c1.089-0.003,1.375,0.299,1.37,1.378
			c-0.041,9.444-0.023,18.888-0.023,28.333c0,0.372,0,0.744,0,1.202C35.587,35.176,19.961,35.176,4.25,35.176z"/>
	</g>
</g>
<g id="PE76Qg_1_">
	<g>
		<path fill="#FFFFFF" d="M14.438,17.957c0-0.39-0.014-0.76,0.002-1.13c0.015-0.292,0.188-0.434,0.482-0.437
			c0.123-0.001,0.245,0,0.366,0c0.248,0,0.495,0,0.745,0c0-0.597,0-1.182,0-1.774c-0.167,0-0.324-0.001-0.481,0
			c-0.488,0.006-0.98-0.016-1.465,0.027c-1.124,0.101-1.695,0.896-1.778,1.85c-0.037,0.435-0.018,0.875-0.024,1.313
			c0,0.045,0,0.091,0,0.153c-0.346,0-0.679,0-1.013,0c0,0.613,0,1.212,0,1.827c0.338,0,0.671,0,1.016,0c0,1.727,0,3.437,0,5.151
			c0.721,0,1.429,0,2.147,0c0-1.718,0-3.428,0-5.151c0.055,0,0.098,0,0.14,0c0.395,0,0.788-0.003,1.183,0.002
			c0.101,0.001,0.135-0.028,0.144-0.13c0.031-0.36,0.072-0.721,0.109-1.081c0.02-0.202,0.039-0.405,0.059-0.619
			C15.52,17.957,14.985,17.957,14.438,17.957z"/>
		<path fill-rule="evenodd" clip-rule="evenodd" d="M14.438,17.957c0.548,0,1.082,0,1.631,0c-0.02,0.214-0.039,0.417-0.059,0.619
			c-0.037,0.36-0.078,0.721-0.109,1.081c-0.009,0.102-0.043,0.132-0.144,0.13c-0.395-0.005-0.788-0.002-1.183-0.002
			c-0.042,0-0.085,0-0.14,0c0,1.723,0,3.433,0,5.151c-0.719,0-1.427,0-2.147,0c0-1.715,0-3.424,0-5.151c-0.345,0-0.678,0-1.016,0
			c0-0.615,0-1.213,0-1.827c0.334,0,0.667,0,1.013,0c0-0.062,0-0.108,0-0.153c0.007-0.438-0.013-0.878,0.024-1.313
			c0.083-0.954,0.654-1.75,1.778-1.85c0.484-0.043,0.977-0.021,1.465-0.027c0.157-0.001,0.314,0,0.481,0c0,0.593,0,1.177,0,1.774
			c-0.25,0-0.497,0-0.745,0c-0.121,0-0.243-0.001-0.366,0c-0.295,0.002-0.468,0.144-0.482,0.437
			C14.424,17.197,14.438,17.567,14.438,17.957z"/>
	</g>
</g>
<g id="_x36_Nob6B_1_">
	<g>
		<path d="M28.903,24.936c-1.597,0-3.196,0-4.795,0c-0.096-0.017-0.192-0.03-0.286-0.052c-1.078-0.254-1.771-0.912-2.07-1.98
			c-0.037-0.132-0.055-0.27-0.08-0.404c0-1.599,0-3.198,0-4.797c0.018-0.095,0.03-0.191,0.052-0.285
			c0.253-1.079,0.912-1.771,1.979-2.072c0.131-0.036,0.27-0.053,0.405-0.079c1.599,0,3.198,0,4.795,0
			c0.097,0.017,0.192,0.031,0.288,0.051c1.258,0.258,2.146,1.339,2.148,2.622c0.002,1.44,0.002,2.882-0.001,4.322
			c-0.001,0.175-0.014,0.354-0.052,0.523c-0.25,1.08-0.91,1.771-1.978,2.071C29.179,24.893,29.041,24.91,28.903,24.936z
			 M30.475,20.109h0.003c0-0.701,0-1.403,0-2.105c0-0.218-0.021-0.432-0.091-0.641c-0.233-0.702-0.909-1.241-1.758-1.236
			c-1.416,0.008-2.832-0.002-4.249,0.006c-0.203,0.001-0.414,0.032-0.61,0.093c-0.7,0.218-1.242,0.898-1.238,1.752
			c0.008,1.417-0.001,2.833,0.007,4.249c0,0.205,0.033,0.416,0.094,0.61c0.217,0.702,0.901,1.243,1.753,1.239
			c1.415-0.008,2.832-0.003,4.248-0.001c0.304,0,0.596-0.054,0.863-0.2c0.6-0.328,0.953-0.831,0.973-1.519
			C30.492,21.607,30.475,20.858,30.475,20.109z"/>
		<path fill-rule="evenodd" clip-rule="evenodd" fill="#FFFFFF" d="M28.903,24.936c0.138-0.026,0.275-0.043,0.406-0.08
			c1.067-0.299,1.728-0.991,1.978-2.071c0.038-0.168,0.051-0.348,0.052-0.523c0.003-1.44,0.003-2.882,0.001-4.322
			c-0.002-1.283-0.891-2.364-2.148-2.622c-0.096-0.02-0.191-0.034-0.288-0.051c0.819,0,1.639,0,2.456,0c0,3.223,0,6.446,0,9.668
			C30.542,24.936,29.723,24.936,28.903,24.936z"/>
		<path fill-rule="evenodd" clip-rule="evenodd" fill="#FFFFFF" d="M21.672,22.5c0.025,0.134,0.043,0.272,0.08,0.404
			c0.299,1.068,0.992,1.726,2.07,1.98c0.094,0.022,0.19,0.035,0.286,0.052c-0.812,0-1.624,0-2.437,0
			C21.672,24.124,21.672,23.312,21.672,22.5z"/>
		<path fill-rule="evenodd" clip-rule="evenodd" d="M28.999,20.105c-0.003,1.371-1.124,2.489-2.494,2.488
			c-1.374-0.001-2.495-1.126-2.49-2.5c0.006-1.372,1.128-2.487,2.498-2.483S29.001,18.735,28.999,20.105z M26.502,21.73
			c0.903,0.003,1.632-0.724,1.633-1.627c0.001-0.899-0.719-1.623-1.621-1.63c-0.9-0.006-1.631,0.718-1.637,1.623
			C24.873,20.997,25.599,21.727,26.502,21.73z"/>
		<path fill-rule="evenodd" clip-rule="evenodd" d="M29.102,18.14c-0.346,0-0.632-0.286-0.629-0.631
			c0.001-0.341,0.283-0.621,0.626-0.627c0.341-0.005,0.633,0.284,0.634,0.628C29.735,17.854,29.449,18.14,29.102,18.14z"/>
		<path fill-rule="evenodd" clip-rule="evenodd" fill="#FFFFFF" d="M26.502,21.73c-0.903-0.003-1.629-0.733-1.625-1.634
			c0.006-0.905,0.736-1.629,1.637-1.623c0.902,0.007,1.622,0.731,1.621,1.63C28.134,21.006,27.405,21.733,26.502,21.73z"/>
	</g>
</g>
<g id="VdQIcP_1_">
	<g>
		<path fill="#FFFFFF" d="M46.86,15.836c-0.051,0.024-0.08,0.036-0.108,0.052c-0.396,0.222-0.815,0.38-1.258,0.488
			c-0.115,0.028-0.182,0.004-0.266-0.072c-0.694-0.622-1.494-0.804-2.382-0.529c-1.033,0.323-1.737,1.348-1.641,2.457
			c0.01,0.119,0.025,0.238,0.041,0.367c-2-0.139-3.637-0.978-4.931-2.499c-0.274,0.476-0.373,0.977-0.305,1.503
			c0.091,0.696,0.436,1.25,1.03,1.683c-0.397-0.013-0.734-0.123-1.062-0.286c-0.043,0.819,0.498,2.03,1.872,2.376
			c-0.346,0.093-0.683,0.098-1.051,0.039c0.405,1.03,1.134,1.58,2.226,1.675c-0.295,0.238-0.607,0.424-0.938,0.574
			c-0.808,0.369-1.656,0.5-2.538,0.414c-0.001,0.014-0.003,0.019-0.001,0.021c0.019,0.014,0.037,0.027,0.056,0.039
			c0.872,0.532,1.812,0.86,2.828,0.97c0.809,0.087,1.609,0.044,2.399-0.143c1.622-0.383,2.913-1.265,3.869-2.625
			c0.886-1.262,1.323-2.669,1.292-4.215c-0.001-0.076,0.025-0.12,0.081-0.172c0.282-0.263,0.563-0.53,0.835-0.804
			c0.098-0.099,0.17-0.222,0.267-0.353c-0.235,0.079-0.442,0.158-0.652,0.216c-0.212,0.059-0.429,0.096-0.644,0.142
			c-0.004-0.01-0.007-0.02-0.011-0.029C46.339,16.809,46.675,16.395,46.86,15.836z"/>
		<path fill-rule="evenodd" clip-rule="evenodd" d="M46.86,15.836c-0.186,0.558-0.521,0.973-0.99,1.287
			c0.004,0.009,0.007,0.019,0.011,0.029c0.215-0.046,0.432-0.083,0.644-0.142c0.21-0.058,0.417-0.137,0.652-0.216
			c-0.097,0.131-0.169,0.254-0.267,0.353c-0.272,0.274-0.553,0.542-0.835,0.804c-0.056,0.052-0.082,0.097-0.081,0.172
			c0.031,1.546-0.406,2.953-1.292,4.215c-0.956,1.36-2.247,2.242-3.869,2.625c-0.79,0.187-1.591,0.23-2.399,0.143
			c-1.017-0.11-1.956-0.438-2.828-0.97c-0.019-0.012-0.037-0.025-0.056-0.039c-0.002-0.001,0-0.007,0.001-0.021
			c0.882,0.087,1.73-0.045,2.538-0.414c0.331-0.15,0.644-0.335,0.938-0.574c-1.092-0.095-1.82-0.645-2.226-1.675
			c0.368,0.059,0.705,0.054,1.051-0.039C36.479,21.03,35.938,19.819,35.98,19c0.327,0.163,0.664,0.273,1.062,0.286
			c-0.595-0.433-0.939-0.987-1.03-1.683c-0.068-0.526,0.03-1.027,0.305-1.503c1.294,1.521,2.931,2.36,4.931,2.499
			c-0.016-0.129-0.031-0.248-0.041-0.367c-0.097-1.108,0.607-2.133,1.641-2.457c0.888-0.275,1.688-0.093,2.382,0.529
			c0.084,0.076,0.15,0.1,0.266,0.072c0.442-0.108,0.861-0.266,1.258-0.488C46.78,15.873,46.81,15.86,46.86,15.836z"/>
	</g>
</g>
</svg>
