<?xml version="1.0" encoding="utf-8"?>
<!-- Generator: Adobe Illustrator 16.0.0, SVG Export Plug-In . SVG Version: 6.00 Build 0)  -->
<!DOCTYPE svg PUBLIC "-//W3C//DTD SVG 1.1//EN" "http://www.w3.org/Graphics/SVG/1.1/DTD/svg11.dtd">
<svg version="1.1" id="Layer_1" xmlns="http://www.w3.org/2000/svg" xmlns:xlink="http://www.w3.org/1999/xlink" x="0px" y="0px"
	 width="54.47px" height="49.277px" viewBox="0 0 54.47 49.277" enable-background="new 0 0 54.47 49.277" xml:space="preserve">
<g>
	<path d="M11.968,20.865c-0.512,0-1.023-0.195-1.414-0.586c-0.781-0.781-0.781-2.047,0-2.828L21.232,6.773
		c0.781-0.781,2.047-0.781,2.828,0s0.781,2.047,0,2.828L13.382,20.279C12.991,20.67,12.479,20.865,11.968,20.865z"/>
</g>
<g>
	<path d="M22.646,20.865c-0.512,0-1.023-0.195-1.414-0.586L10.554,9.602c-0.781-0.781-0.781-2.047,0-2.828s2.047-0.781,2.828,0
		l10.679,10.678c0.781,0.781,0.781,2.047,0,2.828C23.67,20.67,23.158,20.865,22.646,20.865z"/>
</g>
<g>
	<path d="M22.431,49.125c-0.512,0-1.023-0.195-1.414-0.586c-0.781-0.781-0.781-2.047,0-2.828l10.678-10.678
		c0.781-0.781,2.047-0.781,2.828,0s0.781,2.047,0,2.828L23.845,48.539C23.454,48.93,22.942,49.125,22.431,49.125z"/>
</g>
<g>
	<path d="M33.108,49.125c-0.512,0-1.023-0.195-1.414-0.586L21.017,37.861c-0.781-0.781-0.781-2.047,0-2.828s2.047-0.781,2.828,0
		l10.678,10.678c0.781,0.781,0.781,2.047,0,2.828C34.132,48.93,33.62,49.125,33.108,49.125z"/>
</g>
<g>
	<path d="M41.791,31.221c-0.512,0-1.023-0.195-1.414-0.586c-0.781-0.781-0.781-2.047,0-2.828l10.679-10.679
		c0.781-0.781,2.047-0.781,2.828,0s0.781,2.047,0,2.828L43.205,30.635C42.814,31.025,42.303,31.221,41.791,31.221z"/>
</g>
<g>
	<path d="M52.47,31.221c-0.512,0-1.023-0.195-1.414-0.586L40.377,19.956c-0.781-0.781-0.781-2.047,0-2.828s2.047-0.781,2.828,0
		l10.679,10.679c0.781,0.781,0.781,2.047,0,2.828C53.493,31.025,52.981,31.221,52.47,31.221z"/>
</g>
<g>
	<path d="M41.188,10.188c-0.512,0-1.023-0.195-1.414-0.586L35,4.828l-4.773,4.773c-0.781,0.781-2.047,0.781-2.828,0
		s-0.781-2.047,0-2.828l6.188-6.188c0.781-0.781,2.047-0.781,2.828,0l6.188,6.188c0.781,0.781,0.781,2.047,0,2.828
		C42.211,9.992,41.699,10.188,41.188,10.188z"/>
</g>
<g>
	<path d="M6.75,39.026c-1.104,0-2-0.896-2-2c0-10.171,9.995-12.143,17.294-13.581C30.082,21.859,33,15.9,33,12.281v-9.75
		c0-1.104,0.896-2,2-2s2,0.896,2,2v9.75c0,6.107-4.871,13.252-14.183,15.088c-9.531,1.88-14.067,3.805-14.067,9.657
		C8.75,38.131,7.854,39.026,6.75,39.026z"/>
</g>
<g>
	<path d="M6.875,49.277C3.084,49.277,0,46.193,0,42.402s3.084-6.875,6.875-6.875s6.875,3.084,6.875,6.875
		S10.666,49.277,6.875,49.277z M6.875,39.527C5.29,39.527,4,40.817,4,42.402s1.29,2.875,2.875,2.875s2.875-1.29,2.875-2.875
		S8.46,39.527,6.875,39.527z"/>
</g>
</svg>
