<?xml version="1.0" encoding="utf-8"?>
<!-- Generator: Adobe Illustrator 16.0.0, SVG Export Plug-In . SVG Version: 6.00 Build 0)  -->
<!DOCTYPE svg PUBLIC "-//W3C//DTD SVG 1.1//EN" "http://www.w3.org/Graphics/SVG/1.1/DTD/svg11.dtd">
<svg version="1.1" id="Layer_1" xmlns="http://www.w3.org/2000/svg" xmlns:xlink="http://www.w3.org/1999/xlink" x="0px" y="0px"
	 width="55.418px" height="50.311px" viewBox="0 0 55.418 50.311" enable-background="new 0 0 55.418 50.311" xml:space="preserve">
<g>
	<path d="M53.418,50.311H2c-1.104,0-2-0.896-2-2v-41.5c0-1.104,0.896-2,2-2h51.418c1.104,0,2,0.896,2,2v41.5
		C55.418,49.415,54.522,50.311,53.418,50.311z M4,46.311h47.418v-37.5H4V46.311z"/>
</g>
<g>
	<g>
		<path d="M40.709,11.809c-1.104,0-2-0.896-2-2V2c0-1.104,0.896-2,2-2s2,0.896,2,2v7.809C42.709,10.913,41.813,11.809,40.709,11.809
			z"/>
	</g>
	<g>
		<path d="M14.709,11.809c-1.104,0-2-0.896-2-2V2c0-1.104,0.896-2,2-2s2,0.896,2,2v7.809C16.709,10.913,15.813,11.809,14.709,11.809
			z"/>
	</g>
</g>
<g>
	<polygon points="27.709,22.405 30.725,28.517 37.469,29.496 32.59,34.254 33.74,40.971 27.709,37.8 21.678,40.971 22.83,34.254 
		17.949,29.496 24.693,28.517 	"/>
	<path d="M21.678,42.646c-0.348,0-0.693-0.107-0.985-0.32c-0.516-0.375-0.774-1.01-0.666-1.639l1.003-5.849l-4.25-4.143
		c-0.457-0.445-0.621-1.111-0.424-1.718c0.197-0.607,0.722-1.049,1.353-1.141l5.872-0.854l2.626-5.32
		c0.282-0.572,0.865-0.935,1.503-0.935s1.221,0.362,1.503,0.935l2.626,5.32l5.872,0.854c0.631,0.092,1.155,0.533,1.353,1.14
		c0.197,0.607,0.033,1.273-0.424,1.719l-4.248,4.143l1.001,5.849c0.108,0.629-0.15,1.265-0.666,1.639
		c-0.517,0.376-1.199,0.425-1.766,0.128l-5.251-2.761l-5.251,2.761C22.213,42.583,21.944,42.646,21.678,42.646z M27.709,36.124
		c0.268,0,0.536,0.064,0.78,0.192l3.026,1.591l-0.577-3.37c-0.094-0.544,0.087-1.098,0.481-1.483l2.448-2.387l-3.385-0.492
		c-0.546-0.079-1.018-0.422-1.262-0.917l-1.513-3.065l-1.513,3.065c-0.244,0.495-0.716,0.838-1.262,0.917l-3.384,0.491L24,33.054
		c0.395,0.385,0.575,0.939,0.481,1.483l-0.578,3.37l3.025-1.591C27.173,36.188,27.441,36.124,27.709,36.124z"/>
</g>
<g>
	<line x1="2" y1="15.811" x2="53.418" y2="15.811"/>
	<path d="M53.418,17.486H2c-0.926,0-1.676-0.75-1.676-1.676S1.074,14.135,2,14.135h51.418c0.926,0,1.676,0.75,1.676,1.676
		S54.344,17.486,53.418,17.486z"/>
</g>
</svg>
