<?xml version="1.0" encoding="utf-8"?>
<!-- Generator: Adobe Illustrator 16.0.0, SVG Export Plug-In . SVG Version: 6.00 Build 0)  -->
<!DOCTYPE svg PUBLIC "-//W3C//DTD SVG 1.1//EN" "http://www.w3.org/Graphics/SVG/1.1/DTD/svg11.dtd">
<svg version="1.1" id="Layer_1" xmlns="http://www.w3.org/2000/svg" xmlns:xlink="http://www.w3.org/1999/xlink" x="0px" y="0px"
	 width="46.745px" height="46.752px" viewBox="0 0 46.745 46.752" enable-background="new 0 0 46.745 46.752" xml:space="preserve">
<path fill-rule="evenodd" clip-rule="evenodd" d="M11.017,22.812c1.662,1.771,3.288,3.468,4.861,5.213
	c0.241,0.269,0.453,0.916,0.308,1.114c-0.388,0.524-0.984,0.459-1.481,0.021c-1.016-0.896-2.021-1.804-3.032-2.706
	c0.05-0.1,0.099-0.199,0.147-0.298c-0.276,0.249-0.553,0.498-0.936,0.843c0.814,0.769,1.601,1.496,2.368,2.243
	c0.253,0.246,0.592,0.518,0.65,0.824c0.087,0.455,0.113,1.07-0.132,1.388c-0.161,0.207-0.978,0.181-1.274-0.042
	c-0.995-0.747-1.869-1.652-2.835-2.442c-0.215-0.176-0.613-0.127-0.927-0.182c-0.026,0.102-0.053,0.202-0.078,0.303
	c0.896,0.957,1.799,1.909,2.689,2.871c0.468,0.506,0.807,1.084,0.188,1.67c-0.634,0.602-1.266,0.288-1.774-0.23
	c-0.873-0.891-1.707-1.818-2.613-2.792c-0.257,0.224-0.483,0.421-0.711,0.619c0.053,0.149,0.061,0.27,0.124,0.339
	c0.821,0.893,1.636,1.793,2.484,2.661c0.53,0.542,0.666,1.149,0.162,1.691c-0.559,0.601-1.15,0.294-1.666-0.192
	c-0.953-0.898-1.915-1.789-2.894-2.701c-0.729,0.86-0.518,1.604,0.098,2.253c2.064,2.175,4.148,4.333,6.244,6.479
	c1.013,1.036,1.9,1.024,2.941,0.021c2.338-2.257,4.698-4.49,6.992-6.79c0.704-0.706,1.171-0.77,1.743,0.069
	c0.278,0.408,0.648,0.754,1.071,1.235c-0.508,0.548-0.982,1.114-1.512,1.621c-2.705,2.591-5.427,5.164-8.138,7.749
	c-1.56,1.486-1.98,1.456-3.484-0.111c-3.213-3.35-6.446-6.681-9.679-10.012c-1.215-1.253-1.243-1.841-0.015-3.025
	c2.751-2.651,5.519-5.284,8.278-7.927C9.796,24.004,10.397,23.413,11.017,22.812z"/>
<path fill-rule="evenodd" clip-rule="evenodd" d="M23.978,10.32c2.617-2.529,5.178-5.008,7.744-7.481
	c0.514-0.495,1.038-0.981,1.573-1.454c0.801-0.708,1.453-0.724,2.24,0.067c1.915,1.924,3.79,3.887,5.679,5.837
	c1.565,1.617,3.129,3.234,4.687,4.857c1.137,1.185,1.132,1.685-0.051,2.843c-2.96,2.899-5.929,5.788-8.897,8.679
	c-0.07,0.068-0.175,0.103-0.298,0.173c-0.544-0.618-1.078-1.226-1.74-1.978c1.64-1.688,3.286-3.4,4.955-5.09
	c0.651-0.661,1.381-1.245,2.021-1.915c0.876-0.917,0.849-1.785-0.036-2.706c-2.029-2.111-4.06-4.223-6.105-6.318
	c-1.051-1.077-1.733-1.134-2.833-0.118c-1.855,1.716-3.652,3.496-5.552,5.324c1.484,1.531,2.922,3.012,4.357,4.496
	c0.223,0.23,0.58,0.449,0.619,0.71c0.068,0.461,0.089,1.05-0.143,1.409c-0.361,0.559-0.924,0.36-1.372-0.045
	c-0.132-0.119-0.253-0.252-0.375-0.382C28.326,14.962,26.203,12.695,23.978,10.32z"/>
<path fill-rule="evenodd" clip-rule="evenodd" d="M6.404,14.176c3.168-2.976,6.258-5.878,9.385-8.816
	c0.793,0.879,1.531,1.697,2.358,2.614c-3.109,2.931-6.187,5.832-9.324,8.791C8.016,15.9,7.246,15.077,6.404,14.176z"/>
<path fill-rule="evenodd" clip-rule="evenodd" d="M19.177,8.905c-3.208,3.022-6.288,5.923-9.439,8.892
	c7.038,7.445,13.987,14.796,20.983,22.197c3.142-2.955,6.207-5.84,9.388-8.832C33.119,23.729,26.165,16.335,19.177,8.905z
	 M19.293,16.272c-0.646-0.509-1.277-1.139-1.619-1.867c-0.107-0.23,0.689-0.883,1.27-1.58c0.66,0.931,1.255,1.608,1.599,2.395
	C20.609,15.373,19.39,16.348,19.293,16.272z M33.561,31.771c-0.961-0.954-1.923-1.909-2.849-2.897
	c-2.877-3.068-5.744-6.145-8.588-9.244c-0.241-0.263-0.49-0.831-0.367-1.052c0.254-0.457,0.757-0.775,1.202-1.192
	c0.394,0.294,0.709,0.465,0.941,0.713c3.76,4,7.505,8.013,11.268,12.009c0.456,0.483,0.524,0.903,0.011,1.338
	C34.708,31.844,34.239,32.443,33.561,31.771z"/>
<path fill-rule="evenodd" clip-rule="evenodd" d="M11.412,0.856c-1.148-1.082-2.43-1.144-3.542-0.158
	C6.001,2.355,4.165,4.051,2.379,5.795C1.17,6.976,1.107,8.296,2.164,9.592c1.035,1.268,2.171,2.455,3.296,3.716
	c3.191-3.005,6.28-5.915,9.437-8.887C13.705,3.194,12.604,1.978,11.412,0.856z M5.699,9.598C5.049,8.947,4.5,8.397,3.925,7.821
	c1.854-1.739,3.718-3.488,5.521-5.179c0.614,0.592,1.17,1.128,1.794,1.729C9.401,6.105,7.573,7.83,5.699,9.598z"/>
<path fill-rule="evenodd" clip-rule="evenodd" d="M44.662,43.227c-1.112-3.528-2.204-7.063-3.373-10.822
	c-3.167,2.981-6.211,5.848-9.326,8.78c0.229,0.111,0.345,0.179,0.467,0.227c3.361,1.287,6.711,2.604,10.095,3.826
	c0.551,0.198,1.363,0.174,1.86-0.1C45.113,44.737,44.887,43.937,44.662,43.227z M41.478,40.336
	c-0.541,0.563-1.117,1.109-1.752,1.561c-0.249,0.177-0.727,0.2-1.033,0.096c-1.167-0.396-2.308-0.874-3.636-1.39
	c1.83-1.726,3.554-3.351,5.39-5.082c0.461,1.419,0.902,2.697,1.275,3.995C41.789,39.753,41.658,40.148,41.478,40.336z"/>
<path fill-rule="evenodd" clip-rule="evenodd" d="M35.332,8.181c-1.892,0.037-3.55,1.687-3.562,3.542
	c-0.013,2.01,1.543,3.544,3.587,3.538c2.039-0.007,3.522-1.465,3.521-3.462C38.879,9.766,37.288,8.143,35.332,8.181z M35.309,13.135
	c-0.841-0.02-1.43-0.608-1.4-1.398c0.026-0.699,0.79-1.433,1.473-1.416c0.797,0.02,1.336,0.615,1.335,1.474
	C36.715,12.628,36.162,13.155,35.309,13.135z"/>
</svg>
