<?xml version="1.0" encoding="utf-8"?>
<!-- Generator: Adobe Illustrator 16.0.0, SVG Export Plug-In . SVG Version: 6.00 Build 0)  -->
<!DOCTYPE svg PUBLIC "-//W3C//DTD SVG 1.1//EN" "http://www.w3.org/Graphics/SVG/1.1/DTD/svg11.dtd">
<svg version="1.1" id="Layer_1" xmlns="http://www.w3.org/2000/svg" xmlns:xlink="http://www.w3.org/1999/xlink" x="0px" y="0px"
	 width="94.666px" height="63.391px" viewBox="0 0 94.666 63.391" enable-background="new 0 0 94.666 63.391" xml:space="preserve">
<g>
	<path d="M23.647,45.946c-1.984,0-3.894-1.111-4.813-3.015c-0.62-1.283-0.703-2.731-0.233-4.076s1.436-2.427,2.719-3.046
		l10.637-5.136c0.99-0.481,2.189-0.064,2.67,0.932c0.48,0.994,0.063,2.189-0.932,2.67l-10.637,5.136
		c-0.321,0.155-0.563,0.426-0.681,0.763c-0.117,0.336-0.096,0.697,0.059,1.018c0.321,0.664,1.12,0.941,1.782,0.622l14.561-6.995
		c0.994-0.476,2.191-0.059,2.669,0.937c0.479,0.996,0.059,2.19-0.937,2.669l-14.558,6.993C25.21,45.776,24.423,45.946,23.647,45.946
		z"/>
</g>
<g>
	<path d="M59.863,21.282c-0.568,0-1.146-0.091-1.714-0.284L44.8,17.184c-1.062-0.304-1.677-1.41-1.373-2.473
		c0.304-1.062,1.409-1.679,2.473-1.373l13.444,3.844c0.79,0.266,1.552-0.107,1.789-0.804c0.235-0.694-0.139-1.454-0.835-1.692
		l-20.85-7.099L23.836,9.742c-1.088,0.147-2.104-0.612-2.255-1.708c-0.15-1.094,0.614-2.104,1.708-2.255l16.082-2.22
		c0.309-0.044,0.623-0.012,0.918,0.088l21.299,7.252c2.783,0.95,4.277,3.985,3.331,6.768C64.163,19.884,62.084,21.282,59.863,21.282
		z"/>
</g>
<g>
	<path d="M23.646,53.384c-1.984,0-3.893-1.111-4.812-3.014c-0.62-1.283-0.703-2.731-0.233-4.076s1.436-2.427,2.719-3.046
		l20.262-9.782c0.993-0.481,2.189-0.063,2.67,0.932c0.48,0.994,0.063,2.19-0.932,2.67L23.059,46.85
		c-0.321,0.155-0.563,0.426-0.681,0.763c-0.117,0.336-0.096,0.697,0.059,1.018c0.321,0.664,1.12,0.941,1.782,0.622L44.48,39.47
		c0.994-0.48,2.189-0.064,2.67,0.932c0.48,0.994,0.063,2.19-0.932,2.67l-20.262,9.782C25.212,53.214,24.424,53.384,23.646,53.384z"
		/>
</g>
<g>
	<path d="M28.606,58.344c-1.984,0-3.893-1.111-4.812-3.014c-0.62-1.283-0.703-2.731-0.233-4.076s1.436-2.427,2.719-3.046
		l16.233-7.838c0.993-0.481,2.189-0.064,2.67,0.932c0.48,0.994,0.063,2.189-0.932,2.67L28.019,51.81
		c-0.321,0.155-0.563,0.426-0.681,0.763c-0.117,0.336-0.096,0.697,0.059,1.018c0.32,0.664,1.12,0.941,1.782,0.622L49.44,44.43
		c0.994-0.481,2.189-0.063,2.67,0.932c0.48,0.994,0.063,2.19-0.932,2.67l-20.262,9.782C30.172,58.174,29.384,58.344,28.606,58.344z"
		/>
</g>
<g>
	<path d="M33.652,63.39c-1.984,0-3.893-1.111-4.812-3.014c-0.62-1.283-0.703-2.731-0.233-4.076s1.436-2.427,2.719-3.046l14.02-6.769
		c0.993-0.48,2.189-0.064,2.67,0.932c0.48,0.994,0.063,2.19-0.932,2.67l-14.02,6.769c-0.321,0.155-0.563,0.426-0.681,0.763
		c-0.117,0.336-0.096,0.697,0.059,1.018c0.321,0.664,1.12,0.942,1.782,0.622l36.372-17.601l8.446-7.855
		c0.81-0.751,2.073-0.707,2.827,0.103c0.752,0.81,0.706,2.075-0.103,2.827l-8.667,8.06c-0.146,0.136-0.312,0.249-0.491,0.336
		L35.965,62.859C35.219,63.219,34.43,63.39,33.652,63.39z"/>
</g>
<g>
	<rect x="73.089" y="3.47" transform="matrix(0.8848 -0.466 0.466 0.8848 0.0055 39.3086)" width="12.833" height="32.347"/>
	<path d="M81.367,38.89c-0.699,0-1.376-0.378-1.725-1.04L64.567,9.23c-0.24-0.457-0.289-0.99-0.137-1.483
		c0.153-0.493,0.496-0.905,0.952-1.146l11.355-5.979c0.954-0.5,2.129-0.136,2.63,0.815l15.074,28.618
		c0.24,0.457,0.289,0.99,0.137,1.483c-0.153,0.493-0.495,0.905-0.952,1.146l-11.354,5.979C81.982,38.817,81.673,38.89,81.367,38.89z
		 M68.92,9.139l13.261,25.175l7.909-4.166L76.83,4.974L68.92,9.139z"/>
</g>
<g>
	<rect x="6.338" y="3.11" transform="matrix(0.9575 0.2886 -0.2886 0.9575 6.1076 -2.8603)" width="12.832" height="32.346"/>
	<path d="M14.232,38.567c-0.188,0-0.378-0.027-0.562-0.083L1.385,34.781c-1.029-0.31-1.612-1.396-1.303-2.425l9.33-30.972
		C9.562,0.891,9.9,0.476,10.355,0.231c0.456-0.244,0.988-0.299,1.482-0.148l12.286,3.703c1.029,0.31,1.612,1.396,1.302,2.425
		l-9.329,30.972c-0.149,0.494-0.488,0.909-0.943,1.153C14.867,38.489,14.551,38.567,14.232,38.567z M4.371,31.616l8.56,2.579
		l8.207-27.244l-8.56-2.579L4.371,31.616z"/>
</g>
<g>
	<path d="M34.274,27.765c-2.422,0-4.787-0.667-6.842-1.93c-0.94-0.579-1.234-1.811-0.656-2.752c0.579-0.941,1.81-1.233,2.752-0.656
		c1.423,0.875,3.064,1.338,4.746,1.338c5.174,0,9.075-3.656,9.075-8.504c0-1.104,0.896-2,2-2s2,0.896,2,2
		C47.35,22.272,41.606,27.765,34.274,27.765z"/>
</g>
</svg>
