<?xml version="1.0" encoding="utf-8"?>
<!-- Generator: Adobe Illustrator 16.0.0, SVG Export Plug-In . SVG Version: 6.00 Build 0)  -->
<!DOCTYPE svg PUBLIC "-//W3C//DTD SVG 1.1//EN" "http://www.w3.org/Graphics/SVG/1.1/DTD/svg11.dtd">
<svg version="1.1" id="Layer_1" xmlns="http://www.w3.org/2000/svg" xmlns:xlink="http://www.w3.org/1999/xlink" x="0px" y="0px"
	 width="77.42px" height="77px" viewBox="-18.771 -18.668 77.42 77" enable-background="new -18.771 -18.668 77.42 77"
	 xml:space="preserve">
<g>
	<rect x="16.42" y="9.923" transform="matrix(0.7069 0.7073 -0.7073 0.7069 20.1852 -7.834)" width="6.25" height="21.032"/>
	<path d="M12.676-1.301L9.09-4.885L5.428-1.224c-1.138,1.138-2.981,1.138-4.12,0c-1.136-1.136-1.138-2.979,0-4.117L4.97-9.002
		l-7.55-7.552L-17.45-1.684l15.253,15.255L12.676-1.301z"/>
	<path d="M46.642,39.988c-1.137,1.138-2.981,1.138-4.119,0c-1.136-1.134-1.138-2.979,0-4.118l3.663-3.658l-4.899-4.899
		L26.417,42.185L40.892,56.66l14.871-14.871l-5.46-5.46L46.642,39.988z"/>
	<path d="M54.925-12.576l-2.362-2.361c-2.403-2.405-5.604-3.731-9.007-3.731c-3.401,0-6.6,1.326-9.007,3.729l-2.354,2.353
		l-42.602,42.605c-0.573,0.573-1.011,1.265-1.284,2.029l-6.763,18.992c-0.699,1.96-0.222,4.148,1.23,5.638
		c1.044,1.073,2.463,1.653,3.914,1.653c0.567,0,1.137-0.091,1.693-0.271l19.419-6.338C8.62,51.454,9.362,51,9.97,50.392l42.601-42.6
		l2.354-2.356C59.892,0.469,59.892-7.613,54.925-12.576z M-13.311,52.872l5.75-16.145L3.198,47.484L-13.311,52.872z M51.066,1.575
		l-1.604,1.606L8.04,44.602L-4.616,31.95L32.947-5.614l5.462-5.461c1.422-1.421,3.286-2.132,5.147-2.132
		c1.863,0,3.728,0.708,5.147,2.132l2.36,2.36C53.908-5.875,53.908-1.267,51.066,1.575z"/>
</g>
</svg>
