<?xml version="1.0" encoding="utf-8"?>
<!-- Generator: Adobe Illustrator 16.0.0, SVG Export Plug-In . SVG Version: 6.00 Build 0)  -->
<!DOCTYPE svg PUBLIC "-//W3C//DTD SVG 1.1//EN" "http://www.w3.org/Graphics/SVG/1.1/DTD/svg11.dtd">
<svg version="1.1" id="Layer_1" xmlns="http://www.w3.org/2000/svg" xmlns:xlink="http://www.w3.org/1999/xlink" x="0px" y="0px"
	 width="56.561px" height="51.388px" viewBox="0 0 56.561 51.388" enable-background="new 0 0 56.561 51.388" xml:space="preserve">
<path fill="#FFFFFF" d="M37.605,14.751c0,1.456-0.183,2.881-0.521,4.262c0.867,1.005,1.948,1.82,3.187,2.35
	c-1.964,0.682-3.517,1.952-4.751,3.531c3.849,5.064,5.609,11.586,6.412,16.654h14.628c0,0,0.032-16.846-9.43-20.169
	c3.146-1.331,5.353-4.446,5.353-8.077c0-4.841-3.924-8.766-8.766-8.766c-3.042,0-5.721,1.551-7.293,3.903
	C37.176,10.403,37.605,12.526,37.605,14.751z"/>
<path fill="#FFFFFF" d="M18.854,3c5.938,0,10.75,4.813,10.75,10.75c0,4.453-2.707,8.272-6.564,9.905
	c11.604,4.076,11.564,24.733,11.564,24.733H3.001c0,0,0.004-20.72,11.627-24.753c-3.835-1.642-6.523-5.449-6.523-9.885
	C8.104,7.813,12.917,3,18.854,3 M18.854,0c-7.582,0-13.75,6.168-13.75,13.75c0,3.685,1.465,7.125,3.951,9.649
	c-8.934,7.41-9.055,24.175-9.055,24.988L0,51.388h3.001h31.604h2.994l0.006-2.994c0.002-0.811-0.084-17.522-8.987-24.954
	c2.509-2.526,3.987-5.981,3.987-9.69C32.604,6.168,26.437,0,18.854,0L18.854,0z"/>
</svg>
