<?xml version="1.0" encoding="utf-8"?>
<!-- Generator: Adobe Illustrator 16.0.0, SVG Export Plug-In . SVG Version: 6.00 Build 0)  -->
<!DOCTYPE svg PUBLIC "-//W3C//DTD SVG 1.1//EN" "http://www.w3.org/Graphics/SVG/1.1/DTD/svg11.dtd">
<svg version="1.1" id="Layer_1" xmlns="http://www.w3.org/2000/svg" xmlns:xlink="http://www.w3.org/1999/xlink" x="0px" y="0px"
	 width="53.186px" height="55.566px" viewBox="0 0 53.186 55.566" enable-background="new 0 0 53.186 55.566" xml:space="preserve">
<path d="M3.861,0c10.616,0,25.235,0,35.851,0c2.094,0.702,3.333,2.17,3.84,4.291c0,15.662,0,31.323,0,46.984
	c-0.614,2.247-1.954,3.769-4.292,4.291c-10.391,0-24.783,0-35.174,0c-3.545-1.095-4.14-3.216-4.081-6.225
	C0.085,45.354,0.09,9.965,0.003,5.865C-0.055,3.181,0.668,1.073,3.861,0z M4.374,4.25c0,15.711,0,31.337,0,47.029
	c0.458,0,0.83,0,1.202,0c9.444,0,22.891-0.018,32.334,0.023c1.079,0.005,1.381-0.281,1.378-1.37
	c-0.036-14.825-0.024-29.649-0.024-44.475c0-0.37,0-0.74,0-1.208C28.914,4.25,14.661,4.25,4.374,4.25z"/>
<g>
	<path d="M11.86,16.658h19.832l0.032,6.643h-0.949c-0.312-2.376-1.201-3.984-2.67-4.823c-0.826-0.462-2.059-0.715-3.7-0.758v17.354
		c0,1.212,0.211,2.017,0.635,2.414c0.424,0.397,1.305,0.596,2.646,0.596v0.836H15.945v-0.836c1.287,0,2.142-0.201,2.565-0.604
		c0.424-0.402,0.635-1.204,0.635-2.406V17.719c-1.609,0.043-2.842,0.296-3.7,0.758c-1.576,0.86-2.466,2.468-2.67,4.823h-0.949
		L11.86,16.658z"/>
</g>
<g>
	<path fill-rule="evenodd" clip-rule="evenodd" d="M35.283,47.686c-0.297,0-0.608-0.219-0.633-0.708
		c-0.205-4.155-0.047-4.548,0.005-4.678L48.184,8.62c0.214-0.533,0.724-0.877,1.298-0.877c0.179,0,0.354,0.034,0.521,0.101
		l1.807,0.726c0.715,0.287,1.063,1.103,0.777,1.819l-13.529,33.68c-0.062,0.153-0.206,0.512-3.24,3.376
		C35.648,47.604,35.468,47.686,35.283,47.686z"/>
	<path fill="#FFFFFF" d="M49.482,8.243c0.111,0,0.225,0.021,0.334,0.065l1.806,0.726c0.46,0.185,0.684,0.708,0.499,1.169
		l-13.529,33.68c-0.151,0.376-2.321,2.445-3.12,3.199c-0.073,0.069-0.138,0.104-0.19,0.104c-0.077,0-0.125-0.077-0.134-0.234
		c-0.055-1.118-0.18-4.093-0.03-4.465l13.528-33.68C48.789,8.456,49.125,8.243,49.482,8.243 M49.482,7.243L49.482,7.243
		c-0.78,0-1.472,0.468-1.763,1.191l-13.528,33.68c-0.088,0.217-0.251,0.624-0.041,4.887c0.042,0.815,0.617,1.185,1.132,1.185
		c0.218,0,0.548-0.065,0.878-0.379c3.113-2.938,3.261-3.308,3.359-3.552l13.528-33.68c0.39-0.972-0.083-2.08-1.054-2.469
		L50.189,7.38C49.962,7.289,49.725,7.243,49.482,7.243L49.482,7.243z"/>
</g>
</svg>
