<?xml version="1.0" encoding="utf-8"?>
<!-- Generator: Adobe Illustrator 16.0.0, SVG Export Plug-In . SVG Version: 6.00 Build 0)  -->
<!DOCTYPE svg PUBLIC "-//W3C//DTD SVG 1.1//EN" "http://www.w3.org/Graphics/SVG/1.1/DTD/svg11.dtd">
<svg version="1.1" id="Layer_1" xmlns="http://www.w3.org/2000/svg" xmlns:xlink="http://www.w3.org/1999/xlink" x="0px" y="0px"
	 width="55.566px" height="48.562px" viewBox="0 0 55.566 48.562" enable-background="new 0 0 55.566 48.562" xml:space="preserve">
<path fill="#FFFFFF" d="M0,35.689C0,25.073,0,14.456,0,3.84C0.702,1.746,2.169,0.507,4.292,0c15.661,0,31.323,0,46.984,0
	c2.247,0.614,3.769,1.954,4.291,4.292c0,10.391,0,20.781,0,31.172c-1.095,3.545-3.216,4.14-6.225,4.081
	c-3.987-0.079-7.979-0.02-11.968-0.02c-0.396,0-0.793,0-1.289,0c0.089,0.322,0.113,0.506,0.188,0.666
	c0.817,1.744,1.673,3.472,2.457,5.229c0.795,1.782-0.102,3.138-2.032,3.139c-5.983,0.003-11.968,0.005-17.952-0.001
	c-1.837-0.002-2.72-1.45-1.937-3.132c0.888-1.907,1.76-3.821,2.717-5.901c-0.562,0-0.959,0-1.355,0
	c-4.103,0-8.206-0.064-12.306,0.022C3.181,39.605,1.073,38.882,0,35.689z M4.25,35.176c15.71,0,31.336,0,47.029,0
	c0-0.458,0-0.83,0-1.202c0-9.444-0.018-18.889,0.023-28.333c0.005-1.079-0.281-1.381-1.37-1.378
	C35.107,4.299,20.283,4.288,5.458,4.288c-0.37,0-0.74,0-1.208,0C4.25,14.638,4.25,24.889,4.25,35.176z"/>
<path fill-rule="evenodd" clip-rule="evenodd" fill="#FFFFFF" d="M18.936,20.423c-0.527-0.111-1.025-0.249-1.533-0.316
	c-1.385-0.185-1.587-0.438-1.348-1.784c0.404-2.265,0.404-2.267,2.673-2.051c0.255,0.024,0.505,0.099,0.767,0.151
	c0.042-0.04,0.1-0.083,0.143-0.137c0.882-1.103,1.167-2.143-0.169-3.163c-0.788-0.601-0.479-1.2,0.186-1.719
	c0.471-0.368,0.925-0.756,1.373-1.152c0.533-0.473,0.99-0.458,1.4,0.155c0.166,0.248,0.392,0.458,0.54,0.715
	c0.55,0.957,1.268,0.639,2.079,0.396c0.896-0.268,0.704-0.904,0.706-1.506c0.007-1.876,0.004-1.876,1.889-1.876
	c0.339,0,0.678,0.003,1.016,0c0.782-0.007,1.201,0.344,1.154,1.16c-0.002,0.038,0,0.075,0,0.113
	c0.043,1.835,0.043,1.835,1.992,2.549c0.432-0.52,0.822-1.137,1.358-1.575c0.278-0.227,0.927-0.325,1.212-0.154
	c0.696,0.417,1.326,0.98,1.88,1.58c0.176,0.191,0.158,0.762,0,1.018c-0.369,0.599-0.878,1.111-1.387,1.727
	c0.149,0.249,0.336,0.544,0.507,0.849c0.183,0.323,0.351,0.654,0.52,0.971c0.508-0.041,0.999-0.012,1.452-0.13
	c1.54-0.403,1.621-0.522,1.936,1.406c0.338,2.071,0.279,2.082-1.701,2.575c-0.286,0.071-0.578,0.114-0.867,0.17
	c-0.036,0.067-0.077,0.128-0.104,0.194c-0.624,1.529,0.042,2.413,1.458,2.927c0.066,0.024,0.113,0.099,0.177,0.137
	c0.761,0.466,0.447,1.163,0.064,1.495c-0.724,0.628-0.373,2.375-2.029,1.992c-0.28-0.064-0.537-0.245-0.795-0.392
	c-0.416-0.236-0.824-0.489-1.237-0.736c-0.526,0.462-1.03,0.903-1.61,1.411c0.106,0.34,0.224,0.755,0.367,1.16
	c0.11,0.313,0.364,0.611,0.366,0.917c0.012,1.756-1.685,1.149-2.525,1.74c-0.473,0.333-1.058,0.343-1.275-0.487
	c-0.176-0.676-0.489-1.314-0.733-1.948c-0.698,0-1.386,0-2.143,0c-0.228,0.601-0.514,1.241-0.712,1.909
	c-0.217,0.729-0.667,0.806-1.284,0.587c-0.14-0.05-0.276-0.107-0.415-0.159c-2.25-0.849-2.294-0.862-1.573-3.1
	c0.295-0.916-0.45-1.107-0.857-1.483c-0.235-0.218-0.735-0.154-1.118-0.204c-0.065-0.008-0.139,0.048-0.208,0.076
	c-0.658,0.268-1.733,0.922-1.903,0.738c-0.736-0.796-1.231-1.823-1.749-2.802c-0.071-0.134,0.177-0.525,0.37-0.688
	c0.307-0.259,0.674-0.47,1.048-0.624c0.712-0.292,1.16-0.631,0.735-1.503C18.878,21.242,18.961,20.82,18.936,20.423z M24.165,19.74
	c-0.012,2.542,1.854,3.616,3.602,3.722c1.853,0.112,3.606-1.739,3.634-3.616c0.029-1.928-1.568-3.576-3.478-3.586
	C25.69,16.247,24.174,17.651,24.165,19.74z"/>
</svg>
