<?xml version="1.0" encoding="utf-8"?>
<!-- Generator: Adobe Illustrator 16.0.0, SVG Export Plug-In . SVG Version: 6.00 Build 0)  -->
<!DOCTYPE svg PUBLIC "-//W3C//DTD SVG 1.1//EN" "http://www.w3.org/Graphics/SVG/1.1/DTD/svg11.dtd">
<svg version="1.1" id="Layer_1" xmlns="http://www.w3.org/2000/svg" xmlns:xlink="http://www.w3.org/1999/xlink" x="0px" y="0px"
	 width="42.807px" height="42.807px" viewBox="0 0 42.807 42.807" enable-background="new 0 0 42.807 42.807" xml:space="preserve">
<path fill="#FFFFFF" d="M31.004,5.313C23.92-1.771,12.395-1.771,5.312,5.312c-7.083,7.083-7.083,18.608,0.001,25.692
	c6.725,6.725,17.446,7.052,24.576,1.006l10.357,10.357c0.585,0.586,1.536,0.586,2.122,0c0.585-0.586,0.585-1.535,0-2.121
	L32.011,29.889C38.056,22.759,37.729,12.038,31.004,5.313z M28.882,28.882c-5.913,5.913-15.535,5.913-21.448,0.001
	C1.521,22.969,1.52,13.347,7.433,7.433s15.536-5.913,21.45,0.001C34.796,13.347,34.796,22.969,28.882,28.882z"/>
</svg>
