<?xml version="1.0" encoding="utf-8"?>
<!-- Generator: Adobe Illustrator 16.0.0, SVG Export Plug-In . SVG Version: 6.00 Build 0)  -->
<!DOCTYPE svg PUBLIC "-//W3C//DTD SVG 1.1//EN" "http://www.w3.org/Graphics/SVG/1.1/DTD/svg11.dtd">
<svg version="1.1" id="Layer_1" xmlns="http://www.w3.org/2000/svg" xmlns:xlink="http://www.w3.org/1999/xlink" x="0px" y="0px"
	 width="64.136px" height="40.982px" viewBox="0 0 64.136 40.982" enable-background="new 0 0 64.136 40.982" xml:space="preserve">
<g>
	<path d="M4.285,35.689c0-10.616,0-21.233,0-31.849C4.987,1.746,6.455,0.507,8.576,0C24.238,0,39.899,0,55.56,0
		c2.247,0.614,3.769,1.954,4.291,4.292c0,10.391,0,20.781,0,31.172c-1.095,3.545-3.216,4.14-6.225,4.081
		c-3.987-0.079-39.377-0.084-43.477,0.003C7.465,39.605,5.358,38.882,4.285,35.689z M8.535,35.176c15.711,0,31.337,0,47.029,0
		c0-0.458,0-0.83,0-1.202c0-9.444-0.018-18.889,0.023-28.333c0.005-1.079-0.281-1.381-1.37-1.378
		C39.392,4.299,24.568,4.288,9.743,4.288c-0.37,0-0.74,0-1.208,0C8.535,14.638,8.535,24.889,8.535,35.176z"/>
</g>
<g>
	<path d="M63.136,35.115h-2.939H3.94H1c-0.55,0-1,0.44-1,1v0.427c0,2.45,1.761,4.44,3.94,4.44h56.256c2.18,0,3.939-1.99,3.939-4.44
		v-0.427C64.136,35.555,63.687,35.115,63.136,35.115z"/>
</g>
<g>
	<path d="M52.101,8.331c0-0.552-0.448-1-1-1H12.536c-0.552,0-1,0.448-1,1v1.779c0,0.552,0.448,1,1,1h38.565c0.552,0,1-0.448,1-1
		V8.331z"/>
</g>
<g>
	<path d="M29.536,14.112h-17c-0.552,0-1,0.448-1,1v16c0,0.552,0.448,1,1,1h17c0.552,0,1-0.448,1-1v-16
		C30.536,14.56,30.088,14.112,29.536,14.112z M19.541,25.941l-0.277-1.056h-1.83l-0.285,1.056h-1.672l1.838-5.656h2.03l1.861,5.656
		H19.541z M25.819,25.178c-0.518,0.508-1.245,0.763-2.183,0.763h-1.822v-5.633h1.949c0.904,0,1.602,0.231,2.094,0.694
		c0.492,0.462,0.738,1.13,0.738,2.003C26.595,23.945,26.336,24.669,25.819,25.178z"/>
	<path d="M23.779,21.537h-0.443v3.156h0.339c0.462,0,0.801-0.134,1.017-0.403s0.324-0.679,0.324-1.231
		c0-0.516-0.103-0.899-0.307-1.148S24.195,21.537,23.779,21.537z"/>
	<path d="M18.499,21.915c-0.081-0.326-0.134-0.56-0.16-0.701c-0.023,0.131-0.068,0.347-0.137,0.647
		c-0.068,0.301-0.219,0.893-0.453,1.776h1.198l-0.243-0.925C18.648,22.507,18.58,22.241,18.499,21.915z"/>
</g>
<g>
	<g>
		<rect x="32.935" y="18.613" width="19.167" height="1"/>
	</g>
	<g>
		<rect x="32.935" y="22.613" width="19.167" height="1"/>
	</g>
	<g>
		<rect x="32.935" y="26.613" width="19.167" height="1"/>
	</g>
</g>
</svg>
