<?xml version="1.0" encoding="utf-8"?>
<!-- Generator: Adobe Illustrator 16.0.0, SVG Export Plug-In . SVG Version: 6.00 Build 0)  -->
<!DOCTYPE svg PUBLIC "-//W3C//DTD SVG 1.1//EN" "http://www.w3.org/Graphics/SVG/1.1/DTD/svg11.dtd">
<svg version="1.1" id="Layer_1" xmlns="http://www.w3.org/2000/svg" xmlns:xlink="http://www.w3.org/1999/xlink" x="0px" y="0px"
	 width="68.573px" height="80.5px" viewBox="0 0 68.573 80.5" enable-background="new 0 0 68.573 80.5" xml:space="preserve">
<g>
	<path d="M44.209,73.472H24.364c-0.811,0-1.54-0.488-1.849-1.237l-6.132-14.872c-0.21-0.509-0.201-1.082,0.024-1.583l16.054-35.682
		c0.323-0.718,1.037-1.18,1.824-1.18s1.501,0.462,1.824,1.18l16.056,35.682c0.226,0.501,0.234,1.074,0.024,1.583l-6.133,14.872
		C45.749,72.983,45.02,73.472,44.209,73.472z M25.703,69.472H42.87l5.294-12.838L34.286,25.792L20.41,56.634L25.703,69.472z"/>
</g>
<g>
	<rect x="23.854" y="71.472" width="20.354" height="7.028"/>
	<path d="M44.209,80.5H23.854c-1.104,0-2-0.896-2-2v-7.028c0-1.104,0.896-2,2-2h20.354c1.104,0,2,0.896,2,2V78.5
		C46.209,79.604,45.313,80.5,44.209,80.5z M25.854,76.5h16.354v-3.028H25.854V76.5z"/>
</g>
<g>
	<line x1="34.286" y1="20.918" x2="34.286" y2="49.492"/>
	<path d="M34.286,51.492c-1.104,0-2-0.896-2-2V20.918c0-1.104,0.896-2,2-2s2,0.896,2,2v28.574
		C36.286,50.597,35.391,51.492,34.286,51.492z"/>
</g>
<g>
	<path d="M34.288,59.999c-1.577,0-3.06-0.614-4.174-1.729c-1.115-1.114-1.729-2.597-1.729-4.173c0-3.253,2.646-5.9,5.9-5.9
		c3.253,0,5.899,2.646,5.901,5.9C40.188,57.353,37.541,59.999,34.288,59.999z M34.286,52.197c-1.048,0-1.9,0.853-1.9,1.901
		c0,0.508,0.197,0.984,0.557,1.344c0.358,0.358,0.836,0.557,1.344,0.557h0.002c1.047,0,1.899-0.853,1.899-1.9
		S35.334,52.197,34.286,52.197z"/>
</g>
<g>
	<path d="M62.673,12.521L62.673,12.521c-3.255,0-5.902-2.647-5.902-5.901s2.647-5.901,5.901-5.901c1.577,0,3.06,0.614,4.174,1.729
		c1.114,1.114,1.728,2.596,1.728,4.172C68.573,9.873,65.927,12.52,62.673,12.521z M62.674,4.719c-1.05,0-1.903,0.853-1.903,1.901
		c0,1.048,0.853,1.901,1.9,1.901c1.049-0.001,1.902-0.854,1.902-1.901C64.573,5.571,63.721,4.719,62.674,4.719z"/>
</g>
<g>
	<path d="M58.771,8.62H38.906c-1.104,0-2-0.896-2-2s0.896-2,2-2h19.864c1.104,0,2,0.896,2,2S59.875,8.62,58.771,8.62z"/>
</g>
<g>
	<path d="M5.901,12.522C2.647,12.522,0,9.875,0,6.621S2.646,0.72,5.9,0.72s5.901,2.647,5.901,5.901S9.155,12.522,5.901,12.522z
		 M5.9,4.72C4.853,4.72,4,5.572,4,6.621s0.853,1.901,1.901,1.901c1.048,0,1.9-0.853,1.9-1.901S6.949,4.72,5.9,4.72z"/>
</g>
<g>
	<path d="M29.666,8.621H9.802c-1.104,0-2-0.896-2-2s0.896-2,2-2h19.864c1.104,0,2,0.896,2,2S30.771,8.621,29.666,8.621z"/>
</g>
<g>
	<path d="M62.871,36.806c-1.104,0-2-0.896-2-2c0-14.659-11.926-26.585-26.585-26.585S7.701,20.146,7.701,34.806c0,1.104-0.896,2-2,2
		s-2-0.896-2-2c0-16.864,13.721-30.585,30.585-30.585s30.585,13.721,30.585,30.585C64.871,35.91,63.976,36.806,62.871,36.806z"/>
</g>
<g>
	<rect x="29.666" y="2" fill="#FFFFFF" width="9.24" height="9.239"/>
	<path d="M38.906,13.239h-9.24c-1.104,0-2-0.896-2-2V2c0-1.104,0.896-2,2-2h9.24c1.104,0,2,0.896,2,2v9.239
		C40.906,12.344,40.011,13.239,38.906,13.239z M31.666,9.239h5.24V4h-5.24V9.239z"/>
</g>
</svg>
