<?xml version="1.0" encoding="utf-8"?>
<!-- Generator: Adobe Illustrator 16.0.0, SVG Export Plug-In . SVG Version: 6.00 Build 0)  -->
<!DOCTYPE svg PUBLIC "-//W3C//DTD SVG 1.1//EN" "http://www.w3.org/Graphics/SVG/1.1/DTD/svg11.dtd">
<svg version="1.1" id="Layer_1" xmlns="http://www.w3.org/2000/svg" xmlns:xlink="http://www.w3.org/1999/xlink" x="0px" y="0px"
	 width="39.88px" height="39.663px" viewBox="0 0 39.88 39.663" enable-background="new 0 0 39.88 39.663" xml:space="preserve">
<g>
	
		<rect x="18.128" y="14.729" transform="matrix(-0.707 -0.7073 0.7073 -0.707 19.4423 48.3477)" fill="#FFFFFF" width="3.219" height="10.833"/>
	<path fill="#FFFFFF" d="M16.198,8.946L14.351,7.1l-1.886,1.886c-0.586,0.586-1.536,0.586-2.122,0c-0.585-0.585-0.586-1.535,0-2.121
		l1.886-1.886l-3.889-3.89l-7.66,7.66l7.857,7.858L16.198,8.946z"/>
	<path fill="#FFFFFF" d="M33.695,30.215c-0.586,0.586-1.536,0.586-2.122,0c-0.585-0.585-0.586-1.535,0-2.121l1.886-1.886
		l-2.523-2.523l-7.659,7.661l7.456,7.456l7.66-7.66l-2.812-2.812L33.695,30.215z"/>
	<path fill="#FFFFFF" d="M37.961,3.138l-1.216-1.216C35.506,0.683,33.858,0,32.105,0c-1.752,0-3.399,0.683-4.64,1.921l-1.212,1.212
		L4.308,25.08c-0.295,0.295-0.521,0.651-0.661,1.045l-3.484,9.782c-0.36,1.01-0.114,2.137,0.634,2.905
		c0.538,0.553,1.269,0.851,2.016,0.851c0.292,0,0.586-0.046,0.872-0.139l10.003-3.265c0.421-0.138,0.803-0.372,1.116-0.686
		L36.748,13.63l1.214-1.214C40.52,9.858,40.52,5.695,37.961,3.138z M2.812,36.851l2.962-8.316l5.542,5.541L2.812,36.851z
		 M35.973,10.428l-0.826,0.827L13.81,32.592l-6.519-6.518L26.64,6.724l2.814-2.813c0.732-0.732,1.692-1.098,2.651-1.098
		c0.96,0,1.92,0.365,2.651,1.098l1.216,1.216C37.437,6.59,37.437,8.964,35.973,10.428z"/>
</g>
</svg>
