<?xml version="1.0" encoding="utf-8"?>
<!-- Generator: Adobe Illustrator 16.0.0, SVG Export Plug-In . SVG Version: 6.00 Build 0)  -->
<!DOCTYPE svg PUBLIC "-//W3C//DTD SVG 1.1//EN" "http://www.w3.org/Graphics/SVG/1.1/DTD/svg11.dtd">
<svg version="1.1" id="Layer_1" xmlns="http://www.w3.org/2000/svg" xmlns:xlink="http://www.w3.org/1999/xlink" x="0px" y="0px"
	 width="82.483px" height="82.5px" viewBox="0 0 82.483 82.5" enable-background="new 0 0 82.483 82.5" xml:space="preserve">
<path d="M81.636,77.566L61.685,57.613c5.365-6.313,8.309-14.229,8.309-22.609c-0.001-9.35-3.642-18.139-10.253-24.75
	C53.127,3.642,44.336,0,34.985,0c-9.349,0-18.139,3.641-24.75,10.252C-3.413,23.9-3.412,46.108,10.237,59.758
	c6.61,6.61,15.401,10.252,24.75,10.252c8.379,0,16.295-2.943,22.609-8.31l19.953,19.953c0.564,0.564,1.304,0.847,2.043,0.847
	c0.739,0,1.479-0.282,2.043-0.847C82.765,80.524,82.765,78.695,81.636,77.566z M14.324,55.671
	C2.93,44.273,2.929,25.733,14.322,14.34c5.52-5.519,12.858-8.558,20.663-8.558c7.807,0,15.146,3.039,20.667,8.56
	c5.519,5.519,8.559,12.857,8.56,20.662c0,7.808-3.04,15.146-8.56,20.665c-5.52,5.52-12.859,8.56-20.666,8.56
	C27.182,64.229,19.843,61.19,14.324,55.671z"/>
</svg>
