<?xml version="1.0" encoding="utf-8"?>
<!-- Generator: Adobe Illustrator 16.0.0, SVG Export Plug-In . SVG Version: 6.00 Build 0)  -->
<!DOCTYPE svg PUBLIC "-//W3C//DTD SVG 1.1//EN" "http://www.w3.org/Graphics/SVG/1.1/DTD/svg11.dtd">
<svg version="1.1" id="Layer_1" xmlns="http://www.w3.org/2000/svg" xmlns:xlink="http://www.w3.org/1999/xlink" x="0px" y="0px"
	 width="87.502px" height="78px" viewBox="-18.661 -16.635 87.502 78" enable-background="new -18.661 -16.635 87.502 78"
	 xml:space="preserve">
<g>
	<path d="M-11.095,51.682l-7.566-15.736l60.922-52.581l26.58,55.273L-11.095,51.682z M-12.21,37.288l4.134,8.603l69.171-11.288
		L40.506-8.213L-12.21,37.288z"/>
</g>
<g>
	<path d="M8.999,61.365c-2.173,0-4.157-0.678-5.79-1.987c-3.836-3.074-4.536-8.523-4.603-9.133l5.199-0.579
		c0.083,0.714,0.965,6.997,5.827,6.431c7.473-0.828,12.59-1.827,12.641-1.838c0.192-0.041,3.771-0.955,3.011-9.41l5.209-0.47
		c1.227,13.644-6.992,14.985-7.343,15.035c-0.083,0.021-5.253,1.03-12.942,1.883C9.803,61.342,9.398,61.365,8.999,61.365z"/>
</g>
</svg>
