<?xml version="1.0" encoding="utf-8"?>
<!-- Generator: Adobe Illustrator 16.0.0, SVG Export Plug-In . SVG Version: 6.00 Build 0)  -->
<!DOCTYPE svg PUBLIC "-//W3C//DTD SVG 1.1//EN" "http://www.w3.org/Graphics/SVG/1.1/DTD/svg11.dtd">
<svg version="1.1" id="Layer_1" xmlns="http://www.w3.org/2000/svg" xmlns:xlink="http://www.w3.org/1999/xlink" x="0px" y="0px"
	 width="62.13px" height="46.476px" viewBox="0 0 62.13 46.476" enable-background="new 0 0 62.13 46.476" xml:space="preserve">
<path fill="#FFFFFF" d="M29.488,3c14.629,0,26.488,9.061,26.488,20.238c0,4.907-2.287,9.406-6.089,12.909
	c1.41,2.106,3.056,4.421,5.777,6.132c-0.955,0.404-2.157,0.604-3.459,0.604c-2.558,0-5.5-0.771-7.705-2.287
	c-3.688,1.488-10.55,2.881-15.012,2.881C14.859,43.476,3,34.415,3,23.238C3,12.061,14.859,3,29.488,3 M29.488,0
	C13.229,0,0,10.424,0,23.238s13.229,23.238,29.488,23.238c4.17,0,10.402-1.112,14.702-2.57c2.369,1.253,5.257,1.977,8.015,1.977
	c1.727,0,3.327-0.29,4.628-0.841L62.13,42.8l-4.87-3.062c-1.435-0.902-2.524-2.042-3.484-3.288c3.371-3.857,5.2-8.467,5.2-13.213
	C58.976,10.424,45.748,0,29.488,0L29.488,0z"/>
</svg>
