<?xml version="1.0" encoding="utf-8"?>
<!-- Generator: Adobe Illustrator 16.0.0, SVG Export Plug-In . SVG Version: 6.00 Build 0)  -->
<!DOCTYPE svg PUBLIC "-//W3C//DTD SVG 1.1//EN" "http://www.w3.org/Graphics/SVG/1.1/DTD/svg11.dtd">
<svg version="1.1" id="Layer_1" xmlns="http://www.w3.org/2000/svg" xmlns:xlink="http://www.w3.org/1999/xlink" x="0px" y="0px"
	 width="50.18px" height="44.73px" viewBox="0 0 50.18 44.73" enable-background="new 0 0 50.18 44.73" xml:space="preserve">
<g>
	<path fill="#FFFFFF" d="M4.339,39.178L0,30.153L34.937,0L50.18,31.697L4.339,39.178z M3.699,30.923l2.372,4.933l39.667-6.473
		L33.931,4.83L3.699,30.923z"/>
</g>
<g>
	<path fill="#FFFFFF" d="M15.863,44.73c-1.247,0-2.384-0.388-3.321-1.139c-2.2-1.763-2.601-4.888-2.639-5.238l2.981-0.332
		c0.048,0.409,0.554,4.013,3.342,3.688c4.285-0.475,7.22-1.048,7.249-1.054c0.11-0.023,2.162-0.548,1.726-5.396l2.988-0.27
		c0.703,7.824-4.01,8.594-4.211,8.622c-0.048,0.012-3.013,0.591-7.422,1.08C16.323,44.717,16.091,44.73,15.863,44.73z"/>
</g>
</svg>
