<?xml version="1.0" encoding="utf-8"?>
<!-- Generator: Adobe Illustrator 16.0.0, SVG Export Plug-In . SVG Version: 6.00 Build 0)  -->
<!DOCTYPE svg PUBLIC "-//W3C//DTD SVG 1.1//EN" "http://www.w3.org/Graphics/SVG/1.1/DTD/svg11.dtd">
<svg version="1.1" id="Layer_1" xmlns="http://www.w3.org/2000/svg" xmlns:xlink="http://www.w3.org/1999/xlink" x="0px" y="0px"
	 width="70.381px" height="68.483px" viewBox="0 0 70.381 68.483" enable-background="new 0 0 70.381 68.483" xml:space="preserve">
<g>
	<g>
		<g>
			<g>
				<path fill="#FFFFFF" d="M53.761,34.257c0-9.586,0-19.172-0.001-28.757c0-3.346-2.064-5.469-5.437-5.478
					C39.182-0.002,30.04-0.023,20.899,0.06c-1.146,0.01-2.398,0.46-3.401,1.048c-1.785,1.046-2.07,2.911-2.069,4.829
					c0.005,18.802,0.002,37.603,0.005,56.405c0,0.369,0.022,0.739,0.052,1.106c0.236,3.015,2.38,5.07,5.514,5.025
					c9.103-0.13,18.21-0.153,27.312,0.009c3.374,0.06,5.484-2.831,5.47-5.579C53.729,53.355,53.761,43.806,53.761,34.257z"/>
			</g>
			<g>
				<path fill-rule="evenodd" clip-rule="evenodd" d="M53.761,34.257c0,9.549-0.031,19.098,0.02,28.646
					c0.015,2.749-2.096,5.639-5.47,5.579c-9.102-0.162-18.209-0.14-27.312-0.009c-3.134,0.045-5.277-2.01-5.514-5.025
					c-0.029-0.368-0.052-0.738-0.052-1.106c-0.003-18.802,0-37.603-0.005-56.405c-0.001-1.918,0.284-3.782,2.069-4.829
					c1.003-0.588,2.256-1.038,3.401-1.048c9.141-0.083,18.282-0.063,27.424-0.038C51.695,0.031,53.76,2.154,53.76,5.5
					C53.761,15.085,53.761,24.671,53.761,34.257z M19.177,8.464c0,14.785,0,29.458,0,44.117c10.344,0,20.611,0,30.902,0
					c0-14.749,0-29.418,0-44.117C39.747,8.464,29.501,8.464,19.177,8.464z M34.661,3.093c-2.183,0-4.366,0.03-6.549-0.014
					c-0.885-0.018-1.223,0.419-1.22,1.187c0.004,0.764,0.38,1.239,1.223,1.237c4.329-0.006,8.658-0.008,12.987,0.001
					c0.962,0.002,1.133-0.537,1.139-1.366c0.007-0.854-0.359-1.07-1.142-1.057C38.954,3.117,36.808,3.093,34.661,3.093z
					 M34.536,63.341c1.805,0.012,3.211-1.311,3.235-3.043c0.024-1.733-1.384-3.184-3.107-3.202
					c-1.767-0.019-3.188,1.329-3.241,3.074C31.369,61.917,32.756,63.33,34.536,63.341z"/>
			</g>
			<g>
				<path fill-rule="evenodd" clip-rule="evenodd" fill="#FFFFFF" d="M19.177,8.464c10.324,0,20.57,0,30.902,0
					c0,14.699,0,29.368,0,44.117c-10.291,0-20.559,0-30.902,0C19.177,37.921,19.177,23.249,19.177,8.464z"/>
			</g>
			<g>
				<path fill-rule="evenodd" clip-rule="evenodd" fill="#FFFFFF" d="M34.661,3.093c2.146,0,4.293,0.023,6.438-0.012
					c0.782-0.013,1.148,0.203,1.142,1.057c-0.006,0.83-0.177,1.369-1.139,1.366c-4.329-0.009-8.658-0.007-12.987-0.001
					c-0.843,0.001-1.219-0.473-1.223-1.237c-0.003-0.767,0.335-1.205,1.22-1.187C30.295,3.123,32.479,3.093,34.661,3.093z"/>
			</g>
			<g>
				<path fill-rule="evenodd" clip-rule="evenodd" fill="#FFFFFF" d="M34.536,63.341c-1.78-0.012-3.167-1.425-3.113-3.171
					c0.054-1.745,1.475-3.092,3.241-3.074c1.724,0.019,3.132,1.469,3.107,3.202C37.747,62.03,36.341,63.353,34.536,63.341z"/>
			</g>
		</g>
	</g>
</g>
<g>
	<g>
		<path fill="#FFFFFF" d="M33.281,24.676c0,2.029-0.59,3.948-1.639,5.652c-0.631,1.025,2.25,5.65,1.316,6.498
			c-1.133,1.027-6.145-1.769-7.631-1.075c-2.361,1.101-5.107,1.731-8.035,1.731c-8.83,0-15.988-5.733-15.988-12.807
			s7.158-12.807,15.988-12.807S33.281,17.603,33.281,24.676z"/>
		<path d="M17.293,38.788C7.758,38.788,0,32.457,0,24.676s7.758-14.112,17.293-14.112s17.293,6.331,17.293,14.112
			c0,2.162-0.58,4.233-1.725,6.159c0.052,0.438,0.447,1.485,0.691,2.131c0.769,2.03,1.433,3.784,0.283,4.827
			c-0.416,0.377-0.979,0.568-1.678,0.568c-0.987,0-2.197-0.371-3.478-0.765c-0.996-0.306-2.124-0.652-2.727-0.652
			c-0.087,0-0.123,0.008-0.124,0.008C23.277,38.146,20.309,38.788,17.293,38.788z M17.293,13.174
			c-8.097,0-14.684,5.16-14.684,11.501s6.587,11.501,14.684,11.501c2.637,0,5.225-0.557,7.483-1.609
			c1.078-0.5,2.799-0.042,4.671,0.533c0.794,0.244,1.673,0.514,2.298,0.611c-0.149-0.545-0.438-1.305-0.634-1.823
			c-0.679-1.795-1.216-3.213-0.58-4.245c0.959-1.558,1.445-3.229,1.445-4.968C31.977,18.334,25.39,13.174,17.293,13.174z"/>
	</g>
	<g>
		<circle cx="23.776" cy="25.449" r="2.733"/>
	</g>
	<g>
		<circle cx="17.293" cy="25.449" r="2.732"/>
	</g>
	<g>
		<circle cx="10.809" cy="25.449" r="2.732"/>
	</g>
</g>
<g>
	<g>
		<path fill="#FFFFFF" d="M37.099,33.826c0,2.029,0.59,3.948,1.639,5.652c0.631,1.025-2.25,5.65-1.316,6.498
			c1.133,1.027,6.145-1.769,7.631-1.075c2.361,1.101,5.107,1.731,8.035,1.731c8.83,0,15.988-5.733,15.988-12.807
			s-7.158-12.807-15.988-12.807S37.099,26.752,37.099,33.826z"/>
		<path d="M53.087,47.938c-3.007,0-5.969-0.638-8.564-1.844c0.001,0.004-0.038,0-0.097,0c-0.603,0-1.73,0.346-2.727,0.652
			c-1.28,0.393-2.49,0.765-3.478,0.765l0,0c-0.698,0-1.262-0.191-1.678-0.568c-1.149-1.043-0.485-2.797,0.283-4.828
			c0.244-0.646,0.64-1.692,0.691-2.131c-1.145-1.925-1.725-3.996-1.725-6.159c0-7.781,7.758-14.112,17.293-14.112
			S70.38,26.044,70.38,33.826S62.622,47.938,53.087,47.938z M44.426,43.484c0.454,0,0.84,0.077,1.178,0.234
			c2.259,1.052,4.847,1.609,7.483,1.609c8.097,0,14.684-5.16,14.684-11.501s-6.587-11.501-14.684-11.501s-14.684,5.16-14.684,11.501
			c0,1.739,0.486,3.41,1.445,4.968c0.636,1.032,0.099,2.45-0.58,4.245c-0.196,0.518-0.484,1.278-0.634,1.823
			c0.625-0.098,1.504-0.368,2.298-0.611C42.218,43.856,43.432,43.484,44.426,43.484z"/>
	</g>
	<g>
		<path d="M49.83,40.618c-0.095,0-0.191-0.011-0.287-0.035c-0.64-0.158-1.029-0.804-0.872-1.444l2.584-10.459
			c0.158-0.64,0.806-1.032,1.444-0.872c0.64,0.158,1.029,0.804,0.872,1.444l-2.584,10.459C50.853,40.254,50.365,40.618,49.83,40.618
			z"/>
	</g>
	<g>
		<path d="M54.537,40.618c-0.095,0-0.191-0.011-0.287-0.035c-0.64-0.158-1.029-0.804-0.872-1.444l2.584-10.459
			c0.158-0.64,0.807-1.032,1.444-0.872c0.64,0.158,1.029,0.804,0.872,1.444l-2.584,10.459C55.56,40.254,55.072,40.618,54.537,40.618
			z"/>
	</g>
	<g>
		<path d="M48.637,32.921c-0.658,0-1.192-0.534-1.192-1.193s0.533-1.193,1.192-1.193l11.329,0c0.658,0,1.192,0.534,1.192,1.193
			s-0.533,1.193-1.192,1.193L48.637,32.921z"/>
	</g>
	<g>
		<path d="M58.575,37.041h-11.33c-0.659,0-1.192-0.534-1.192-1.193s0.533-1.193,1.192-1.193h11.33c0.659,0,1.192,0.534,1.192,1.193
			S59.234,37.041,58.575,37.041z"/>
	</g>
</g>
</svg>
