<?xml version="1.0" encoding="utf-8"?>
<!-- Generator: Adobe Illustrator 16.0.0, SVG Export Plug-In . SVG Version: 6.00 Build 0)  -->
<!DOCTYPE svg PUBLIC "-//W3C//DTD SVG 1.1//EN" "http://www.w3.org/Graphics/SVG/1.1/DTD/svg11.dtd">
<svg version="1.1" id="Layer_1" xmlns="http://www.w3.org/2000/svg" xmlns:xlink="http://www.w3.org/1999/xlink" x="0px" y="0px"
	 width="55.418px" height="44.848px" viewBox="0 0 55.418 44.848" enable-background="new 0 0 55.418 44.848" xml:space="preserve">
<g>
	<path d="M53.418,41.657c-0.123,0-0.246-0.012-0.368-0.034l-7.42-1.391L1.659,32.619C0.7,32.453,0,31.621,0,30.648V13.011
		c0-0.939,0.654-1.753,1.572-1.954l43.999-9.621l7.479-1.401c0.584-0.11,1.188,0.048,1.646,0.427
		c0.458,0.38,0.723,0.944,0.723,1.539v37.657c0,0.595-0.265,1.159-0.723,1.539C54.333,41.496,53.881,41.657,53.418,41.657z
		 M4,28.965l42.339,7.331l5.079,0.952V4.409l-5.052,0.946L4,14.621V28.965z"/>
</g>
<g>
	<polygon points="53.418,2 53.418,39.657 45.998,38.267 45.998,3.39 	"/>
</g>
<g>
	<path d="M20.08,44.848c-5.861,0-10.63-4.769-10.63-10.63c0-0.68,0.063-1.342,0.189-1.971V10.944c0-1.104,0.896-2,2-2s2,0.896,2,2
		v21.514c0,0.149-0.017,0.299-0.05,0.444c-0.093,0.406-0.14,0.849-0.14,1.315c0,3.655,2.975,6.63,6.63,6.63
		c3.263,0,6.012-2.331,6.536-5.542c0.178-1.09,1.197-1.826,2.296-1.651c1.09,0.178,1.83,1.206,1.651,2.296
		C29.722,41.105,25.313,44.848,20.08,44.848z"/>
</g>
</svg>
