<?xml version="1.0" encoding="utf-8"?>
<!-- Generator: Adobe Illustrator 16.0.0, SVG Export Plug-In . SVG Version: 6.00 Build 0)  -->
<!DOCTYPE svg PUBLIC "-//W3C//DTD SVG 1.1//EN" "http://www.w3.org/Graphics/SVG/1.1/DTD/svg11.dtd">
<svg version="1.1" id="Layer_1" xmlns="http://www.w3.org/2000/svg" xmlns:xlink="http://www.w3.org/1999/xlink" x="0px" y="0px"
	 width="222.384px" height="162.991px" viewBox="0 0 222.384 162.991" enable-background="new 0 0 222.384 162.991"
	 xml:space="preserve">
<path fill="none" stroke="#FFFFFF" stroke-miterlimit="10" d="M77.66,0.5v2.494v2.654v2.574l1.936,0.965l3.225,2.253l1.936,0.965
	l3.225,2.896l2.902,0.966l-2.58,2.573h-1.935l-1.935-1.287l-0.969-1.608l-2.902-1.608l-2.902,1.931v1.286v2.896v2.252l1.613,1.287
	l0.967,2.252l0.968,1.931l0.646,2.252l-0.323,1.931l-3.87,0.321l-1.936,1.931v2.574l-1.935,1.287l-2.257,2.896l0.645-2.252
	l0.08-2.494l-0.08-1.528l-0.322-1.126l-0.807-1.528l-0.807-0.804h-3.709h-2.257h-1.612l-0.968-2.172l-0.888-1.609l-0.967-1.367
	l-1.209-0.402l-1.049-0.644l-1.612-0.884l-3.468-1.851l-2.74-2.011l-3.064-3.138l-2.902-2.896l-2.66-2.574L39.443,9.59l-0.807-2.091
	l-0.726-2.413l-0.646-2.092h-1.935h-2.258l-2.58,0.644l-3.628,1.046l-1.129,1.77v1.688l1.854,0.966l1.451,0.321l1.692,1.046
	l1.693,1.931l1.936,2.654l1.936,2.493l0.967,1.851l2.661,3.861l1.693,3.619l0.483,1.77l0.242,1.528l0.08,2.734l-0.08,2.735
	l-2.419,3.861l-1.37,2.172l-1.049,2.413l-0.887,2.332l-0.242,2.172l-0.08,2.172l-0.484,2.253l-1.29,2.493l-0.806,1.608l-0.887,2.815
	l0.08,3.539l1.129,5.229l0.483,1.77l1.21,3.941l1.451,4.264l0.726,2.091l0.726,3.137l0.726,3.941l-0.241,2.494l-0.162,2.333
	l-1.371,1.528l-1.531,1.447l-2.016,0.885l-1.371,0.402l-0.645,1.046l-0.242,1.528l-0.403,1.447l-0.726,2.333l-1.371,1.367
	l-0.725,0.483l-4.436,2.976l-2.499,0.885l-2.097,1.77l-1.209,1.367l-0.483,1.529l-0.646,2.734v1.77l0.807,2.092l0.484,1.206
	l0.16,1.608l-0.08,2.413l-0.403,1.689l-0.564,0.885l-0.403,1.207l-1.209,2.332l-0.564,1.771v1.447l0.887,1.448l0.726,0.563h1.612
	l1.693,0.483l1.29,0.482l0.646,1.045l0.242,1.127v1.206c0,0-0.727,1.046-0.646,1.287s-0.968,1.046-0.968,1.046L18.076,144h-1.773
	h-2.338h-1.129l-1.693-0.885l-1.29-0.402l-2.58,0.081L6.467,144l-0.646,0.805l-0.726,2.091l-2.097,0.724l-1.532,0.644L0.5,149.47
	v2.574l1.612,1.77l1.612,1.206l2.097,2.333l2.902,1.85l2.741,0.886h2.5l1.854-1.046l0.969-1.046c0,0,1.129-0.08,1.451-0.08
	s1.129,0.16,1.129,0.16l1.129,1.368l0.322,1.447c0,0,0.806,1.368,1.048,1.528c0.241,0.161,1.612,0,1.612,0l1.209-0.644l0.564-1.287
	c0,0,0.162-1.287,0.323-1.608c0.161-0.322,0.806-2.092,0.806-2.092l1.774-3.539l2.741-2.815l1.693-1.447l1.289-1.046l1.371-0.965
	l2.178-1.207l2.016-0.724l1.935-0.482l1.774-0.805l1.129-1.608l0.482-1.851l0.807-2.091l2.902-3.7l1.774-3.057l2.661-2.655
	l2.821-3.458l2.741-1.608l2.016-0.886l2.58-1.126l2.902-0.644l2.5-0.16h2.983h2.016l3.226,0.804l1.129,0.644l2.257,1.689l1.693,0.08
	l1.935-0.563l2.339-2.494l3.95-4.986l3.709-3.459l2.338-2.253l2.258-1.528l2.822-0.563c0,0,2.016-0.724,2.258-0.644
	s3.225-0.08,3.225-0.08l3.387-0.161l3.306-0.724l3.145-1.287l4.516-1.528l1.451-0.644l2.257-0.161c0,0,2.016-0.724,2.258-0.724
	c0.241,0,3.145-0.805,3.145-0.805l2.097-0.322l1.209-0.804v-2.092v-2.332l-0.564-2.655l-1.29-2.895l-0.968-2.092l-0.887-1.77
	l-0.807-1.287l-1.693-1.689l-0.725-0.85l-1.936,0.688l-1.371,0.966l-1.129,0.885l-0.887,0.965l-1.209,0.885l-2.58,1.207l-2.66,0.161
	h-3.064l-3.628-0.402l-3.064-1.851l-0.905-0.808l1.174-3.643l2.58-4.291l3.012-4.074l3.438-4.72l2.366-3.646l3.225-2.361l1.72-1.93
	l2.58-1.287h2.364l2.796-2.574l2.796-2.574l4.516-2.573l3.225-1.716l3.439-1.502l6.021-2.144l2.364-1.288
	c0,0,2.15-1.287,2.795-1.502c0.646-0.215,2.151-0.428,2.797-1.286c0.645-0.858,2.364-2.574,2.364-2.574v-2.359l3.87,3.003
	l4.73,1.287l5.375-1.503l2.149,1.072l5.806,0.644l3.87-1.286l2.58-3.217v-3.219v-3.003l3.011-2.788h1.074l-0.86-2.574l3.226-2.145
	l3.656-3.217l3.01-1.073c0,0,0.645,0.428,1.289,0c0.646-0.429,2.58,0,2.58,0l2.15,1.93l1.505-2.12v-2.598l1.29-2.146l1.935-1.931
	l3.226-2.788l2.364-1.716c0,0,0.216-2.788,0.86-3.003C218.92,4.79,221.5,0.5,221.5,0.5H77.66z"/>
<path fill-rule="evenodd" clip-rule="evenodd" fill="#FFFFFF" d="M20.328,105.424c4.143,0,7.5,3.358,7.5,7.5
	c0,4.143-3.357,7.5-7.5,7.5s-7.5-3.357-7.5-7.5C12.828,108.782,16.186,105.424,20.328,105.424z"/>
<path fill-rule="evenodd" clip-rule="evenodd" fill="#FFFFFF" d="M114.644,56.989c4.143,0,7.5,3.358,7.5,7.5
	c0,4.143-3.357,7.5-7.5,7.5s-7.5-3.357-7.5-7.5C107.144,60.348,110.501,56.989,114.644,56.989z"/>
</svg>
