<?xml version="1.0" encoding="utf-8"?>
<!-- Generator: Adobe Illustrator 16.0.0, SVG Export Plug-In . SVG Version: 6.00 Build 0)  -->
<!DOCTYPE svg PUBLIC "-//W3C//DTD SVG 1.1//EN" "http://www.w3.org/Graphics/SVG/1.1/DTD/svg11.dtd">
<svg version="1.1" id="Layer_1" xmlns="http://www.w3.org/2000/svg" xmlns:xlink="http://www.w3.org/1999/xlink" x="0px" y="0px"
	 width="9.194px" height="7.626px" viewBox="0 0 9.194 7.626" enable-background="new 0 0 9.194 7.626" xml:space="preserve">
<path fill="#FFFFFF" d="M8.344,1.888C8.644,6.312,3.645,9.072,0,6.83c1.022,0.008,2.155-0.272,2.764-0.85
	C1.879,5.837,1.253,5.436,1.01,4.651c0.259-0.024,0.623,0.056,0.797-0.053c-0.809-0.307-1.448-0.784-1.488-1.86
	c0.289,0.031,0.438,0.2,0.797,0.16c-0.523-0.335-1.12-1.61-0.584-2.551c0.949,1.052,2.134,1.869,3.986,2.02
	c-0.459-1.954,2.13-3.164,3.295-1.754c0.453-0.096,0.834-0.263,1.222-0.425C8.876,0.63,8.553,0.91,8.238,1.197
	c0.343-0.064,0.706-0.109,0.957-0.266C9.15,1.277,8.648,1.625,8.344,1.888z"/>
</svg>
