<?xml version="1.0" encoding="utf-8"?>
<!-- Generator: Adobe Illustrator 16.0.0, SVG Export Plug-In . SVG Version: 6.00 Build 0)  -->
<!DOCTYPE svg PUBLIC "-//W3C//DTD SVG 1.1//EN" "http://www.w3.org/Graphics/SVG/1.1/DTD/svg11.dtd">
<svg version="1.1" id="Layer_1" xmlns="http://www.w3.org/2000/svg" xmlns:xlink="http://www.w3.org/1999/xlink" x="0px" y="0px"
	 width="12.018px" height="12px" viewBox="0 0 12.018 12" enable-background="new 0 0 12.018 12" xml:space="preserve">
<g>
	<path fill="#FFFFFF" d="M2.68,12h-2.49V3.977h2.49V12z M1.435,2.866C0.644,2.866,0,2.224,0,1.432C0,0.642,0.644,0,1.435,0
		c0.79,0,1.434,0.642,1.434,1.432C2.868,2.224,2.225,2.866,1.435,2.866z M12.018,11.994H9.523c0,0-0.016-3.993-0.016-4.611
		c0-0.621-0.37-1.407-1.257-1.407S7.06,6.429,6.89,6.819C6.724,7.215,6.705,8.074,6.705,8.074v3.924H4.249V3.977H6.62v1.11
		c0.016,0,0.026,0,0.042,0c0.271-0.455,0.56-0.721,1.103-1.029c0.54-0.307,1.604-0.366,2.426-0.116
		c0.824,0.249,1.337,0.868,1.53,1.465c0.188,0.596,0.297,1.211,0.297,2.331C12.018,8.854,12.018,11.994,12.018,11.994z"/>
</g>
</svg>
