<?xml version="1.0" encoding="utf-8"?>
<!-- Generator: Adobe Illustrator 16.0.0, SVG Export Plug-In . SVG Version: 6.00 Build 0)  -->
<!DOCTYPE svg PUBLIC "-//W3C//DTD SVG 1.1//EN" "http://www.w3.org/Graphics/SVG/1.1/DTD/svg11.dtd">
<svg version="1.1" id="Layer_1" xmlns="http://www.w3.org/2000/svg" xmlns:xlink="http://www.w3.org/1999/xlink" x="0px" y="0px"
	 width="13px" height="13px" viewBox="0 0 13 13" enable-background="new 0 0 13 13" xml:space="preserve">
<g>
	<path fill="#FFFFFF" d="M6.5,1.172c1.737,0,1.94,0.004,2.627,0.036c0.632,0.029,0.975,0.135,1.208,0.225
		c0.301,0.118,0.517,0.256,0.745,0.487c0.225,0.225,0.369,0.442,0.487,0.747c0.09,0.228,0.191,0.57,0.221,1.208
		c0.034,0.683,0.038,0.89,0.038,2.627c0,1.733-0.004,1.94-0.038,2.623c-0.029,0.634-0.131,0.979-0.221,1.208
		c-0.118,0.303-0.263,0.521-0.487,0.747c-0.229,0.229-0.444,0.367-0.745,0.487c-0.233,0.09-0.576,0.193-1.208,0.223
		c-0.687,0.032-0.89,0.038-2.627,0.038s-1.94-0.006-2.627-0.038c-0.636-0.029-0.979-0.133-1.208-0.223
		C2.36,11.447,2.145,11.31,1.92,11.08c-0.229-0.227-0.369-0.444-0.487-0.747c-0.09-0.229-0.195-0.574-0.225-1.208
		C1.178,8.442,1.17,8.235,1.17,6.502c0-1.737,0.008-1.944,0.038-2.627c0.029-0.638,0.135-0.98,0.225-1.208
		C1.551,2.362,1.69,2.145,1.92,1.92c0.225-0.231,0.44-0.369,0.745-0.487c0.229-0.09,0.572-0.195,1.208-0.225
		C4.56,1.176,4.763,1.172,6.5,1.172 M6.5,0C4.733,0,4.513,0.007,3.817,0.038C3.127,0.07,2.657,0.18,2.241,0.341
		c-0.428,0.166-0.788,0.388-1.152,0.75c-0.36,0.36-0.58,0.723-0.75,1.15C0.183,2.654,0.072,3.127,0.038,3.82
		C0.009,4.513,0,4.735,0,6.502c0,1.763,0.009,1.985,0.038,2.676c0.034,0.693,0.145,1.168,0.301,1.579
		c0.17,0.428,0.39,0.792,0.75,1.152c0.364,0.362,0.725,0.582,1.152,0.748c0.416,0.163,0.886,0.272,1.576,0.303
		C4.513,12.991,4.733,13,6.5,13c1.763,0,1.987-0.009,2.678-0.04c0.695-0.03,1.165-0.14,1.581-0.303
		c0.424-0.166,0.788-0.386,1.148-0.748c0.364-0.36,0.584-0.725,0.75-1.152c0.16-0.411,0.271-0.886,0.305-1.579
		C12.991,8.487,13,8.265,13,6.502c0-1.767-0.009-1.989-0.038-2.682c-0.034-0.693-0.145-1.166-0.305-1.579
		c-0.166-0.428-0.386-0.79-0.75-1.15c-0.36-0.362-0.725-0.584-1.148-0.75C10.343,0.18,9.873,0.07,9.178,0.038
		C8.487,0.007,8.263,0,6.5,0"/>
	<path fill="#FFFFFF" d="M6.5,3.161c-1.843,0-3.339,1.496-3.339,3.341c0,1.841,1.496,3.335,3.339,3.335s3.335-1.494,3.335-3.335
		C9.835,4.657,8.343,3.161,6.5,3.161 M6.5,8.665c-1.199,0-2.17-0.97-2.17-2.163c0-1.199,0.971-2.169,2.17-2.169
		c1.195,0,2.165,0.97,2.165,2.169C8.665,7.695,7.695,8.665,6.5,8.665"/>
	<path fill="#FFFFFF" d="M10.75,3.032c0,0.428-0.352,0.777-0.779,0.777c-0.433,0-0.78-0.35-0.78-0.777
		c0-0.435,0.348-0.782,0.78-0.782C10.398,2.25,10.75,2.598,10.75,3.032"/>
</g>
</svg>
